<svg width="820" height="820" viewBox="0 0 820 820" fill="none" xmlns="http://www.w3.org/2000/svg">
<rect width="820" height="820" rx="410" fill="white"/>
<path d="M614.309 641.439C614.309 635.846 613.207 630.308 611.066 625.14C608.926 619.973 605.789 615.277 601.834 611.322C597.879 607.367 593.184 604.23 588.016 602.09C582.849 599.949 577.31 598.848 571.717 598.848C566.124 598.848 560.585 599.949 555.418 602.09C550.25 604.23 545.555 607.367 541.6 611.322C537.645 615.277 534.508 619.973 532.367 625.14C530.227 630.308 529.125 635.846 529.125 641.439L571.717 641.439L614.309 641.439Z" fill="#FD7E14"/>
<path d="M529.125 641.44C529.125 647.033 530.227 652.571 532.367 657.739C534.508 662.906 537.645 667.601 541.6 671.556C545.555 675.511 550.25 678.649 555.418 680.789C560.585 682.93 566.123 684.031 571.717 684.031C577.31 684.031 582.848 682.93 588.016 680.789C593.183 678.649 597.878 675.511 601.833 671.556C605.788 667.601 608.926 662.906 611.066 657.739C613.207 652.571 614.308 647.033 614.308 641.44L605.79 641.44C605.79 645.914 604.909 650.345 603.196 654.479C601.484 658.613 598.974 662.369 595.81 665.533C592.646 668.697 588.89 671.207 584.756 672.919C580.622 674.632 576.191 675.513 571.717 675.513C567.242 675.513 562.811 674.632 558.677 672.919C554.543 671.207 550.787 668.697 547.623 665.533C544.459 662.369 541.949 658.613 540.237 654.479C538.525 650.345 537.643 645.914 537.643 641.44L529.125 641.44Z" fill="#FD7E14"/>
<path d="M442.102 641.439C442.102 633.016 439.604 624.781 434.924 617.777C430.244 610.773 423.592 605.313 415.809 602.09C408.027 598.866 399.463 598.023 391.201 599.666C382.939 601.309 375.35 605.366 369.394 611.322C363.437 617.279 359.381 624.868 357.737 633.13C356.094 641.392 356.937 649.956 360.161 657.739C363.385 665.521 368.844 672.173 375.848 676.853C382.852 681.533 391.087 684.031 399.51 684.031L399.51 641.439H442.102Z" fill="#28A745"/>
<path d="M399.509 684.031C405.102 684.031 410.641 682.929 415.808 680.789C420.976 678.649 425.671 675.511 429.626 671.556C433.581 667.601 436.718 662.906 438.859 657.739C440.999 652.571 442.101 647.033 442.101 641.439L433.582 641.439C433.582 645.914 432.701 650.345 430.989 654.479C429.276 658.613 426.766 662.369 423.603 665.533C420.439 668.697 416.682 671.207 412.548 672.919C408.414 674.631 403.984 675.513 399.509 675.513V684.031Z" fill="#28A745"/>
<circle cx="240.305" cy="641.439" r="42.5916" fill="#007BFF"/>
<circle cx="240.305" cy="641.44" r="8.87326" fill="white"/>
<path d="M342.238 400.25L399.619 456.691L456.999 400.25V568.373C456.999 577.21 449.836 584.373 440.999 584.373H358.238C349.402 584.373 342.238 577.209 342.238 568.373V400.25Z" fill="#28A745"/>
<path d="M342.415 268.435C342.415 236.745 368.105 211.055 399.796 211.055V211.055C431.486 211.055 457.176 236.745 457.176 268.435V383.196L399.796 326.762L342.415 382.251V268.435Z" fill="#28A745"/>
<g opacity="0.3">
<path d="M400.157 363.927C424.284 363.927 439.363 390.046 427.3 410.941C424.549 415.705 420.592 419.662 415.828 422.413C411.063 425.164 405.659 426.612 400.157 426.612C376.03 426.612 360.951 400.493 373.014 379.598C375.765 374.834 379.722 370.877 384.486 368.126C389.251 365.375 394.655 363.927 400.157 363.927Z" fill="#28A745"/>
<path d="M400.157 363.927C424.284 363.927 439.363 390.046 427.3 410.941C424.549 415.705 420.592 419.662 415.828 422.413C411.063 425.164 405.659 426.612 400.157 426.612C376.03 426.612 360.951 400.493 373.014 379.598C375.765 374.834 379.722 370.877 384.486 368.126C389.251 365.375 394.655 363.927 400.157 363.927Z" fill="black" fill-opacity="0.2"/>
</g>
<path d="M384.019 360.344C384.481 361.143 384.606 362.094 384.367 362.986C384.128 363.878 383.545 364.639 382.745 365.101C379.122 367.202 375.904 369.933 373.241 373.166C372.956 373.534 372.599 373.841 372.193 374.068C371.787 374.296 371.339 374.44 370.877 374.491C370.414 374.543 369.945 374.501 369.499 374.369C369.053 374.236 368.638 374.016 368.278 373.72C367.918 373.424 367.622 373.059 367.406 372.647C367.19 372.235 367.058 371.783 367.02 371.319C366.981 370.855 367.036 370.388 367.181 369.946C367.326 369.503 367.558 369.095 367.864 368.743C371.049 364.862 374.908 361.586 379.255 359.072C379.651 358.843 380.089 358.694 380.542 358.634C380.996 358.574 381.457 358.603 381.899 358.721C382.341 358.839 382.756 359.043 383.119 359.322C383.482 359.6 383.787 359.947 384.016 360.344H384.019ZM421.053 359.072C425.401 361.584 429.261 364.859 432.447 368.74C433.003 369.456 433.258 370.361 433.158 371.262C433.057 372.163 432.609 372.989 431.909 373.565C431.209 374.141 430.311 374.421 429.408 374.346C428.504 374.271 427.666 373.846 427.07 373.163C424.413 369.926 421.193 367.195 417.567 365.101C416.767 364.638 416.184 363.877 415.946 362.984C415.708 362.092 415.834 361.141 416.297 360.342C416.76 359.542 417.521 358.96 418.414 358.722C419.306 358.483 420.253 358.61 421.053 359.072ZM400.157 377.857C399.304 377.857 398.481 378.17 397.844 378.737C397.206 379.304 396.799 380.085 396.699 380.932L396.675 381.34V395.221C396.664 395.994 396.912 396.753 397.378 397.37L397.692 397.732L405.026 405.063C405.651 405.694 406.494 406.062 407.382 406.092C408.27 406.122 409.136 405.812 409.803 405.225C410.469 404.637 410.886 403.817 410.968 402.933C411.05 402.048 410.79 401.165 410.243 400.466L409.95 400.138L403.64 393.828V381.34C403.64 380.416 403.273 379.53 402.62 378.877C401.967 378.224 401.081 377.857 400.157 377.857Z" fill="#28A745"/>
<path d="M384.019 360.344C384.481 361.143 384.606 362.094 384.367 362.986C384.128 363.878 383.545 364.639 382.745 365.101C379.122 367.202 375.904 369.933 373.241 373.166C372.956 373.534 372.599 373.841 372.193 374.068C371.787 374.296 371.339 374.44 370.877 374.491C370.414 374.543 369.945 374.501 369.499 374.369C369.053 374.236 368.638 374.016 368.278 373.72C367.918 373.424 367.622 373.059 367.406 372.647C367.19 372.235 367.058 371.783 367.02 371.319C366.981 370.855 367.036 370.388 367.181 369.946C367.326 369.503 367.558 369.095 367.864 368.743C371.049 364.862 374.908 361.586 379.255 359.072C379.651 358.843 380.089 358.694 380.542 358.634C380.996 358.574 381.457 358.603 381.899 358.721C382.341 358.839 382.756 359.043 383.119 359.322C383.482 359.6 383.787 359.947 384.016 360.344H384.019ZM421.053 359.072C425.401 361.584 429.261 364.859 432.447 368.74C433.003 369.456 433.258 370.361 433.158 371.262C433.057 372.163 432.609 372.989 431.909 373.565C431.209 374.141 430.311 374.421 429.408 374.346C428.504 374.271 427.666 373.846 427.07 373.163C424.413 369.926 421.193 367.195 417.567 365.101C416.767 364.638 416.184 363.877 415.946 362.984C415.708 362.092 415.834 361.141 416.297 360.342C416.76 359.542 417.521 358.96 418.414 358.722C419.306 358.483 420.253 358.61 421.053 359.072ZM400.157 377.857C399.304 377.857 398.481 378.17 397.844 378.737C397.206 379.304 396.799 380.085 396.699 380.932L396.675 381.34V395.221C396.664 395.994 396.912 396.753 397.378 397.37L397.692 397.732L405.026 405.063C405.651 405.694 406.494 406.062 407.382 406.092C408.27 406.122 409.136 405.812 409.803 405.225C410.469 404.637 410.886 403.817 410.968 402.933C411.05 402.048 410.79 401.165 410.243 400.466L409.95 400.138L403.64 393.828V381.34C403.64 380.416 403.273 379.53 402.62 378.877C401.967 378.224 401.081 377.857 400.157 377.857Z" fill="black" fill-opacity="0.2"/>
<path d="M457.176 383.196C457.176 367.978 451.131 353.383 440.37 342.622C429.609 331.861 415.014 325.815 399.796 325.815C384.577 325.815 369.982 331.861 359.221 342.622C348.46 353.383 342.415 367.978 342.415 383.196L362.699 383.196C362.699 373.357 366.608 363.922 373.565 356.965C380.521 350.008 389.957 346.1 399.796 346.1C409.634 346.1 419.07 350.008 426.027 356.965C432.984 363.922 436.892 373.357 436.892 383.196H457.176Z" fill="#175F28"/>
<path d="M342.415 400.221C342.415 415.439 348.46 430.034 359.221 440.795C369.982 451.556 384.577 457.602 399.795 457.602C415.013 457.602 429.608 451.556 440.369 440.795C451.13 430.034 457.176 415.439 457.176 400.221L436.892 400.221C436.892 410.06 432.983 419.495 426.026 426.452C419.069 433.409 409.634 437.317 399.795 437.317C389.957 437.317 380.521 433.409 373.564 426.452C366.607 419.495 362.699 410.06 362.699 400.221H342.415Z" fill="#175F28"/>
<path d="M275.298 582.593C277.481 582.593 279.576 581.725 281.12 580.181C282.664 578.637 283.531 576.543 283.532 574.359L283.531 535.995L197.182 535.993L197.171 574.346C197.17 575.429 197.382 576.502 197.796 577.503C198.21 578.504 198.818 579.414 199.584 580.18C200.35 580.946 201.259 581.553 202.26 581.967C203.261 582.381 204.334 582.593 205.417 582.592L275.298 582.593ZM197.182 519.525L283.531 519.526L283.529 368.119L281.118 370.53C279.573 372.074 277.479 372.942 275.294 372.942C273.11 372.942 271.016 372.074 269.471 370.529L263.648 364.706L257.824 370.529C256.28 372.074 254.185 372.941 252.001 372.941C249.817 372.941 247.722 372.074 246.178 370.529L240.354 364.706L234.531 370.529C232.986 372.073 230.892 372.941 228.708 372.941C226.523 372.941 224.429 372.073 222.884 370.529L217.061 364.705L211.237 370.529C209.693 372.073 207.598 372.941 205.414 372.941C203.23 372.941 201.135 372.073 199.591 370.528L197.18 368.117L197.182 519.525ZM197.179 345.569C198.076 345.976 198.893 346.54 199.59 347.235L205.414 353.058L211.237 347.235C212.781 345.691 214.876 344.823 217.06 344.823C219.245 344.823 221.339 345.691 222.884 347.235L228.707 353.059L234.53 347.235C236.075 345.691 238.17 344.823 240.354 344.823C242.538 344.823 244.633 345.691 246.177 347.236L252.001 353.059L257.824 347.236C259.368 345.691 261.463 344.824 263.647 344.824C265.831 344.824 267.926 345.692 269.471 347.236L275.294 353.059L281.117 347.236C281.815 346.541 282.632 345.977 283.528 345.571L283.54 341.413C283.536 340.299 283.306 339.198 282.864 338.175L247.923 256.647C247.288 255.166 246.232 253.903 244.887 253.015C243.541 252.127 241.964 251.654 240.352 251.654C238.74 251.654 237.164 252.127 235.818 253.015C234.472 253.902 233.417 255.165 232.782 256.647L197.843 338.174C197.401 339.196 197.172 340.298 197.168 341.411L197.179 345.569Z" fill="#007BFF"/>
<path d="M514.621 400.25L572.001 456.691L629.382 400.25V568.373C629.382 577.21 622.218 584.373 613.382 584.373H530.621C521.785 584.373 514.621 577.209 514.621 568.373V400.25Z" fill="#FD7E14"/>
<path d="M514.621 193.387C514.621 161.693 540.314 136 572.008 136V136C603.702 136 629.394 161.693 629.394 193.387V382.574L572.008 326.782L514.621 382.574V193.387Z" fill="#FD7E14"/>
<path d="M629.382 383.217C629.382 367.999 623.337 353.404 612.576 342.643C601.815 331.882 587.22 325.837 572.002 325.837C556.783 325.837 542.188 331.882 531.427 342.643C520.667 353.404 514.621 367.999 514.621 383.217L534.905 383.217C534.905 373.379 538.814 363.943 545.771 356.986C552.727 350.029 562.163 346.121 572.002 346.121C581.84 346.121 591.276 350.029 598.233 356.986C605.19 363.943 609.098 373.379 609.098 383.217H629.382Z" fill="#8D4000"/>
<circle cx="571.687" cy="390.476" r="29.324" fill="#FD7E14" fill-opacity="0.2"/>
<path d="M566.4 361.138C566.842 362.388 566.77 363.762 566.198 364.959C565.627 366.155 564.604 367.076 563.354 367.518C559.033 369.045 555.215 371.731 552.318 375.282C549.421 378.833 547.555 383.111 546.925 387.651C546.295 392.19 546.925 396.815 548.745 401.021C550.566 405.226 553.508 408.85 557.249 411.497C560.991 414.144 565.388 415.711 569.96 416.028C574.531 416.344 579.102 415.398 583.173 413.293C587.243 411.187 590.657 408.003 593.04 404.089C595.423 400.174 596.685 395.68 596.687 391.097C596.687 387.097 595.753 383.331 594.09 379.991C593.798 379.403 593.624 378.763 593.579 378.108C593.534 377.452 593.618 376.795 593.827 376.172C594.25 374.915 595.154 373.876 596.342 373.286C597.529 372.695 598.903 372.601 600.161 373.023C601.418 373.445 602.456 374.35 603.047 375.538C605.448 380.372 606.694 385.699 606.687 391.097C606.687 410.427 591.017 426.097 571.687 426.097C552.357 426.097 536.688 410.427 536.688 391.097C536.688 375.851 546.434 362.894 560.021 358.091C561.271 357.649 562.645 357.722 563.841 358.293C565.038 358.865 565.958 359.888 566.4 361.138ZM573.354 361.144C573.353 360.384 573.525 359.633 573.856 358.949C574.187 358.264 574.669 357.663 575.266 357.192C575.863 356.72 576.558 356.39 577.301 356.226C578.044 356.062 578.814 356.068 579.554 356.244L579.98 356.368L589.933 359.688C591.152 360.094 592.168 360.953 592.77 362.088C593.372 363.223 593.514 364.546 593.167 365.783C592.819 367.02 592.009 368.075 590.905 368.731C589.8 369.387 588.485 369.592 587.234 369.304L586.774 369.174L583.354 368.034V391.097L583.337 391.737C583.209 394.062 582.389 396.294 580.982 398.149C579.575 400.003 577.646 401.394 575.442 402.143C573.238 402.892 570.86 402.965 568.615 402.352C566.369 401.738 564.358 400.468 562.841 398.702C561.324 396.937 560.369 394.758 560.1 392.446C559.831 390.134 560.259 387.794 561.33 385.728C562.402 383.661 564.067 381.963 566.111 380.85C568.156 379.737 570.487 379.262 572.804 379.484L573.354 379.551V361.144Z" fill="#FD7E14"/>
<path d="M514.628 400.244C514.628 415.463 520.673 430.058 531.434 440.819C542.195 451.58 556.79 457.625 572.008 457.625C587.226 457.625 601.821 451.58 612.582 440.819C623.343 430.058 629.389 415.463 629.389 400.244L609.104 400.244C609.104 410.083 605.196 419.519 598.239 426.476C591.282 433.432 581.847 437.341 572.008 437.341C562.17 437.341 552.734 433.432 545.777 426.476C538.82 419.519 534.912 410.083 534.912 400.244H514.628Z" fill="#8D4000"/>
</svg>
