<svg width="1440" height="1087" viewBox="0 0 1440 1087" fill="none" xmlns="http://www.w3.org/2000/svg">
<path d="M-247 27.3635L-199.891 26.9092C-152.782 26.682 -58.5644 25.7734 35.2151 60.3C129.214 94.8265 222.555 164.334 316.554 163.652C410.333 162.971 504.551 91.6464 598.331 45.9896C692.329 0.105696 785.671 -20.3376 879.669 26.9092C973.449 74.3831 1067.67 189.32 1161.45 189.093C1255.44 188.639 1348.79 72.7931 1442.78 60.9814C1536.56 49.3969 1630.78 141.619 1677.89 187.957L1725 234.068V1104.05H1677.89C1630.78 1104.05 1536.56 1104.05 1442.78 1104.05C1348.79 1104.05 1255.44 1104.05 1161.45 1104.05C1067.67 1104.05 973.449 1104.05 879.669 1104.05C785.671 1104.05 692.329 1104.05 598.331 1104.05C504.551 1104.05 410.333 1104.05 316.554 1104.05C222.555 1104.05 129.214 1104.05 35.2151 1104.05C-58.5644 1104.05 -152.782 1104.05 -199.891 1104.05H-247V27.3635Z" fill="#C2CFFF"/>
<path d="M-247 193.184L-199.891 204.087C-152.782 215.217 -58.5644 237.023 35.2151 270.868C129.214 304.486 222.555 349.916 316.554 370.359C410.333 390.803 504.551 386.26 598.331 334.016C692.329 281.772 785.671 181.826 879.669 136.851C973.449 91.6486 1067.67 101.643 1161.45 133.444C1255.44 165.245 1348.79 218.852 1442.78 264.735C1536.56 310.619 1630.78 348.326 1677.89 367.406L1725 386.26V1104.05H1677.89C1630.78 1104.05 1536.56 1104.05 1442.78 1104.05C1348.79 1104.05 1255.44 1104.05 1161.45 1104.05C1067.67 1104.05 973.449 1104.05 879.669 1104.05C785.671 1104.05 692.329 1104.05 598.331 1104.05C504.551 1104.05 410.333 1104.05 316.554 1104.05C222.555 1104.05 129.214 1104.05 35.2151 1104.05C-58.5644 1104.05 -152.782 1104.05 -199.891 1104.05H-247V193.184Z" fill="#B3C4FF"/>
<path d="M-247 215.896L-199.891 212.489C-152.782 209.082 -58.5644 202.268 35.2151 207.492C129.214 212.944 222.555 230.207 316.554 262.916C410.333 295.398 504.551 343.099 598.331 378.762C692.329 414.197 785.671 437.82 879.669 458.263C973.449 478.707 1067.67 495.97 1161.45 466.214C1255.44 436.23 1348.79 359 1442.78 321.52C1536.56 284.041 1630.78 286.312 1677.89 287.448L1725 288.584V1104.05H1677.89C1630.78 1104.05 1536.56 1104.05 1442.78 1104.05C1348.79 1104.05 1255.44 1104.05 1161.45 1104.05C1067.67 1104.05 973.449 1104.05 879.669 1104.05C785.671 1104.05 692.329 1104.05 598.331 1104.05C504.551 1104.05 410.333 1104.05 316.554 1104.05C222.555 1104.05 129.214 1104.05 35.2151 1104.05C-58.5644 1104.05 -152.782 1104.05 -199.891 1104.05H-247V215.896Z" fill="#A4B9FF"/>
<path d="M-247 418.059L-199.891 441.455C-152.782 465.079 -58.5644 511.871 35.2151 511.871C129.214 511.871 222.555 465.079 316.554 457.129C410.333 449.179 504.551 480.071 598.331 503.24C692.329 526.409 785.671 541.401 879.669 532.769C973.449 524.137 1067.67 491.428 1161.45 453.949C1255.44 416.469 1348.79 374.22 1442.78 375.355C1536.56 376.491 1630.78 421.012 1677.89 443.5L1725 465.76V1104.05H1677.89C1630.78 1104.05 1536.56 1104.05 1442.78 1104.05C1348.79 1104.05 1255.44 1104.05 1161.45 1104.05C1067.67 1104.05 973.449 1104.05 879.669 1104.05C785.671 1104.05 692.329 1104.05 598.331 1104.05C504.551 1104.05 410.333 1104.05 316.554 1104.05C222.555 1104.05 129.214 1104.05 35.2151 1104.05C-58.5644 1104.05 -152.782 1104.05 -199.891 1104.05H-247V418.059Z" fill="#94AFFF"/>
<path d="M-247 683.822L-199.891 657.7C-152.782 631.578 -58.5644 579.334 35.2151 537.766C129.214 495.97 222.555 465.078 316.554 491.2C410.333 517.322 504.551 600.458 598.331 637.938C692.329 675.417 785.671 667.24 879.669 647.932C973.449 628.625 1067.67 598.187 1161.45 575.245C1255.44 552.076 1348.79 536.175 1442.78 549.35C1536.56 562.752 1630.78 605.001 1677.89 626.353L1725 647.478V1104.05H1677.89C1630.78 1104.05 1536.56 1104.05 1442.78 1104.05C1348.79 1104.05 1255.44 1104.05 1161.45 1104.05C1067.67 1104.05 973.449 1104.05 879.669 1104.05C785.671 1104.05 692.329 1104.05 598.331 1104.05C504.551 1104.05 410.333 1104.05 316.554 1104.05C222.555 1104.05 129.214 1104.05 35.2151 1104.05C-58.5644 1104.05 -152.782 1104.05 -199.891 1104.05H-247V683.822Z" fill="#83A4FF"/>
<path d="M-247 613.406L-199.891 612.27C-152.782 611.135 -58.5644 608.863 35.2151 612.725C129.214 616.359 222.555 626.354 316.554 632.259C410.333 638.392 504.551 640.664 598.331 626.354C692.329 611.816 785.671 580.924 879.669 566.386C973.449 552.076 1067.67 554.348 1161.45 564.569C1255.44 574.791 1348.79 592.963 1442.78 591.373C1536.56 590.01 1630.78 568.658 1677.89 558.209L1725 547.533V1104.05H1677.89C1630.78 1104.05 1536.56 1104.05 1442.78 1104.05C1348.79 1104.05 1255.44 1104.05 1161.45 1104.05C1067.67 1104.05 973.449 1104.05 879.669 1104.05C785.671 1104.05 692.329 1104.05 598.331 1104.05C504.551 1104.05 410.333 1104.05 316.554 1104.05C222.555 1104.05 129.214 1104.05 35.2151 1104.05C-58.5644 1104.05 -152.782 1104.05 -199.891 1104.05H-247V613.406Z" fill="#709AFF"/>
<path d="M-247 706.537L-199.891 719.712C-152.782 733.113 -58.5644 759.463 35.2151 776.953C129.214 794.443 222.555 802.621 316.554 789.446C410.333 776.272 504.551 741.291 598.331 737.202C692.329 733.113 785.671 759.463 879.669 761.507C973.449 763.324 1067.67 740.609 1161.45 751.967C1255.44 763.324 1348.79 808.754 1442.78 817.385C1536.56 826.244 1630.78 798.078 1677.89 784.222L1725 770.139V1104.05H1677.89C1630.78 1104.05 1536.56 1104.05 1442.78 1104.05C1348.79 1104.05 1255.44 1104.05 1161.45 1104.05C1067.67 1104.05 973.449 1104.05 879.669 1104.05C785.671 1104.05 692.329 1104.05 598.331 1104.05C504.551 1104.05 410.333 1104.05 316.554 1104.05C222.555 1104.05 129.214 1104.05 35.2151 1104.05C-58.5644 1104.05 -152.782 1104.05 -199.891 1104.05H-247V706.537Z" fill="#5B8FFF"/>
<path d="M-247 879.171L-199.891 888.711C-152.782 898.024 -58.5644 917.104 35.2151 903.703C129.214 890.528 222.555 845.099 316.554 828.062C410.333 811.026 504.551 822.384 598.331 843.963C692.329 865.542 785.671 897.343 879.669 893.935C973.449 890.528 1067.67 851.913 1161.45 826.472C1255.44 801.259 1348.79 788.993 1442.78 797.397C1536.56 805.802 1630.78 834.423 1677.89 848.96L1725 863.27V1104.05H1677.89C1630.78 1104.05 1536.56 1104.05 1442.78 1104.05C1348.79 1104.05 1255.44 1104.05 1161.45 1104.05C1067.67 1104.05 973.449 1104.05 879.669 1104.05C785.671 1104.05 692.329 1104.05 598.331 1104.05C504.551 1104.05 410.333 1104.05 316.554 1104.05C222.555 1104.05 129.214 1104.05 35.2151 1104.05C-58.5644 1104.05 -152.782 1104.05 -199.891 1104.05H-247V879.171Z" fill="#3F85FF"/>
<path d="M-247 985.93L-199.891 986.384C-152.782 986.611 -58.5644 987.52 35.2151 983.204C129.214 979.115 222.555 970.029 316.554 966.168C410.333 962.533 504.551 963.896 598.331 971.619C692.329 979.115 785.671 992.744 879.669 993.198C973.449 993.425 1067.67 980.705 1161.45 970.484C1255.44 960.262 1348.79 952.539 1442.78 943.907C1536.56 935.276 1630.78 925.281 1677.89 920.511L1725 915.514V1104.05H1677.89C1630.78 1104.05 1536.56 1104.05 1442.78 1104.05C1348.79 1104.05 1255.44 1104.05 1161.45 1104.05C1067.67 1104.05 973.449 1104.05 879.669 1104.05C785.671 1104.05 692.329 1104.05 598.331 1104.05C504.551 1104.05 410.333 1104.05 316.554 1104.05C222.555 1104.05 129.214 1104.05 35.2151 1104.05C-58.5644 1104.05 -152.782 1104.05 -199.891 1104.05H-247V985.93Z" fill="#007BFF"/>
</svg>
