<svg width="1440" height="317" viewBox="0 0 1440 317" fill="none" xmlns="http://www.w3.org/2000/svg">
<g clip-path="url(#clip0_539_2393)">
<path d="M0 19.9814L34.4 19.6497C68.8 19.4838 137.6 18.8204 206.08 44.0324C274.72 69.2445 342.88 120 411.52 119.503C480 119.005 548.8 66.9223 617.28 33.5827C685.92 0.0771815 754.08 -14.851 822.72 19.6497C891.2 54.3163 960 138.246 1028.48 138.08C1097.12 137.748 1165.28 53.1552 1233.92 44.53C1302.4 36.0707 1371.2 103.413 1405.6 137.251L1440 170.922V806.2H1405.6C1371.2 806.2 1302.4 806.2 1233.92 806.2C1165.28 806.2 1097.12 806.2 1028.48 806.2C960 806.2 891.2 806.2 822.72 806.2C754.08 806.2 685.92 806.2 617.28 806.2C548.8 806.2 480 806.2 411.52 806.2C342.88 806.2 274.72 806.2 206.08 806.2C137.6 806.2 68.8 806.2 34.4 806.2H0V19.9814Z" fill="#C2CFFF"/>
<path d="M0 141.067L34.4 149.029C68.8 157.157 137.6 173.08 206.08 197.795C274.72 222.343 342.88 255.517 411.52 270.445C480 285.373 548.8 282.056 617.28 243.906C685.92 205.756 754.08 132.774 822.72 99.9319C891.2 66.924 960 74.2222 1028.48 97.4439C1097.12 120.666 1165.28 159.811 1233.92 193.316C1302.4 226.822 1371.2 254.356 1405.6 268.289L1440 282.056V806.201H1405.6C1371.2 806.201 1302.4 806.201 1233.92 806.201C1165.28 806.201 1097.12 806.201 1028.48 806.201C960 806.201 891.2 806.201 822.72 806.201C754.08 806.201 685.92 806.201 617.28 806.201C548.8 806.201 480 806.201 411.52 806.201C342.88 806.201 274.72 806.201 206.08 806.201C137.6 806.201 68.8 806.201 34.4 806.201H0V141.067Z" fill="#B3C4FF"/>
<path d="M0 157.653L34.4 155.164C68.8 152.676 137.6 147.7 206.08 151.515C274.72 155.496 342.88 168.102 411.52 191.987C480 215.707 548.8 250.539 617.28 276.58C685.92 302.456 754.08 319.706 822.72 334.635C891.2 349.563 960 362.169 1028.48 340.44C1097.12 318.545 1165.28 262.15 1233.92 234.782C1302.4 207.413 1371.2 209.072 1405.6 209.901L1440 210.731V806.2H1405.6C1371.2 806.2 1302.4 806.2 1233.92 806.2C1165.28 806.2 1097.12 806.2 1028.48 806.2C960 806.2 891.2 806.2 822.72 806.2C754.08 806.2 685.92 806.2 617.28 806.2C548.8 806.2 480 806.2 411.52 806.2C342.88 806.2 274.72 806.2 206.08 806.2C137.6 806.2 68.8 806.2 34.4 806.2H0V157.653Z" fill="#A4B9FF"/>
<path d="M0 305.277L34.4 322.361C68.8 339.611 137.6 373.78 206.08 373.78C274.72 373.78 342.88 339.611 411.52 333.806C480 328.001 548.8 350.559 617.28 367.477C685.92 384.396 754.08 395.343 822.72 389.04C891.2 382.737 960 358.852 1028.48 331.484C1097.12 304.115 1165.28 273.264 1233.92 274.093C1302.4 274.923 1371.2 307.433 1405.6 323.854L1440 340.109V806.2H1405.6C1371.2 806.2 1302.4 806.2 1233.92 806.2C1165.28 806.2 1097.12 806.2 1028.48 806.2C960 806.2 891.2 806.2 822.72 806.2C754.08 806.2 685.92 806.2 617.28 806.2C548.8 806.2 480 806.2 411.52 806.2C342.88 806.2 274.72 806.2 206.08 806.2C137.6 806.2 68.8 806.2 34.4 806.2H0V305.277Z" fill="#94AFFF"/>
</g>
<defs>
<clipPath id="clip0_539_2393">
<rect width="1440" height="317" fill="white"/>
</clipPath>
</defs>
</svg>
