<svg width="33" height="32" viewBox="0 0 33 32" fill="none" xmlns="http://www.w3.org/2000/svg">
<g clip-path="url(#clip0_539_3563)">
<path d="M32.0079 8.27019L28.8036 6.0375C28.272 4.2852 27.2206 2.75541 25.8017 1.66987C24.3829 0.584335 22.6702 -0.000546929 20.9121 3.83767e-07H20.8721C16.3312 0.0230773 12.6358 3.96202 12.6358 8.78221V11.6293L0.99796 26.2327L0.984166 26.25C0.724437 26.5892 0.561574 26.9982 0.514317 27.4299C0.467061 27.8616 0.537331 28.2985 0.717043 28.6903C0.896754 29.0821 1.1786 29.4128 1.53016 29.6445C1.88171 29.8762 2.28869 29.9995 2.70426 30H14.8428C18.6463 29.9958 22.2928 28.4141 24.9822 25.602C27.6717 22.7898 29.1844 18.977 29.1884 15V12.1558L32.0079 10.1913C32.1592 10.086 32.2834 9.94322 32.3692 9.77563C32.4551 9.60805 32.5 9.42088 32.5 9.23077C32.5 9.04066 32.4551 8.85349 32.3692 8.68591C32.2834 8.51832 32.1592 8.37552 32.0079 8.27019ZM16.7947 16.8923L8.51836 27.2769C8.42665 27.3967 8.31303 27.4962 8.18413 27.5695C8.05522 27.6428 7.91363 27.6885 7.76764 27.7038C7.62165 27.7192 7.47418 27.7041 7.33387 27.6591C7.19357 27.6142 7.06323 27.5405 6.9505 27.4423C6.83777 27.3441 6.7449 27.2234 6.67734 27.0872C6.60977 26.951 6.56885 26.802 6.55699 26.6491C6.54513 26.4962 6.56255 26.3423 6.60824 26.1965C6.65393 26.0507 6.72697 25.9159 6.82309 25.8L15.0994 15.4154C15.1911 15.2956 15.3047 15.1962 15.4336 15.1229C15.5625 15.0495 15.7041 15.0039 15.8501 14.9885C15.9961 14.9731 16.1436 14.9883 16.2839 15.0332C16.4242 15.0781 16.5545 15.1518 16.6672 15.25C16.78 15.3482 16.8728 15.469 16.9404 15.6051C17.008 15.7413 17.0489 15.8903 17.0608 16.0432C17.0726 16.1961 17.0552 16.35 17.0095 16.4958C16.9638 16.6416 16.8908 16.7764 16.7947 16.8923ZM22.0156 9.23077C21.6882 9.23077 21.3682 9.12926 21.096 8.93908C20.8238 8.7489 20.6116 8.47859 20.4864 8.16234C20.3611 7.84608 20.3283 7.49808 20.3922 7.16234C20.456 6.82661 20.6137 6.51821 20.8452 6.27616C21.0767 6.03411 21.3716 5.86927 21.6927 5.80249C22.0138 5.73571 22.3466 5.76998 22.6491 5.90098C22.9515 6.03198 23.21 6.25381 23.3919 6.53844C23.5738 6.82306 23.6709 7.15769 23.6709 7.5C23.6709 7.95903 23.4965 8.39926 23.1861 8.72384C22.8756 9.04842 22.4546 9.23077 22.0156 9.23077Z" fill="black"/>
</g>
<defs>
<clipPath id="clip0_539_3563">
<rect width="32" height="32" fill="white" transform="translate(0.5)"/>
</clipPath>
</defs>
</svg>
