<svg width="33" height="32" viewBox="0 0 33 32" fill="none" xmlns="http://www.w3.org/2000/svg">
<path fill-rule="evenodd" clip-rule="evenodd" d="M26.4894 20.4795C26.8496 20.3534 27.2455 20.3669 27.596 20.5171C27.9464 20.6674 28.2249 20.9431 28.3743 21.2878C28.5238 21.6325 28.533 22.0201 28.3999 22.3712C28.2669 22.7222 28.0017 23.0102 27.6587 23.1762L27.4968 23.2437L20.956 25.5296L27.4968 27.8154C27.8588 27.9399 28.1583 28.1955 28.3335 28.5295C28.5087 28.8635 28.5465 29.2506 28.4389 29.611C28.3313 29.9715 28.0866 30.2778 27.7552 30.467C27.4237 30.6562 27.0308 30.7138 26.6573 30.628L26.4894 30.5796L16.499 27.0877L6.50865 30.5796C6.1484 30.7057 5.75252 30.6922 5.40208 30.542C5.05163 30.3917 4.77316 30.116 4.6237 29.7713C4.47423 29.4266 4.46508 29.039 4.59813 28.6879C4.73117 28.3369 4.99634 28.0489 5.33931 27.8829L5.50122 27.8154L12.042 25.5296L5.50122 23.2437C5.13924 23.1192 4.83979 22.8636 4.66455 22.5296C4.4893 22.1956 4.45158 21.8085 4.55917 21.4481C4.66675 21.0876 4.91145 20.7813 5.24287 20.5921C5.5743 20.4029 5.96722 20.3453 6.34075 20.4311L6.50865 20.4795L16.499 23.9714L26.4894 20.4795ZM15.3447 2.62981L16.4046 1.9549L16.7344 1.75977C17.469 1.35336 18.2785 1.08487 18.9786 1.68054C19.3984 2.0356 19.5378 2.53591 19.4629 3.04502L19.4029 3.34579L19.3804 3.5512C19.3704 3.6764 19.3744 3.82654 19.3924 4.00162C19.5213 5.13282 20.3084 5.94123 21.1239 6.67335L21.809 7.2837L22.3217 7.7576C23.5391 8.91961 24.8823 10.4866 25.4475 12.702C26.1281 15.3635 25.4565 17.7506 23.6755 19.432C21.9574 21.0576 19.3789 21.8616 16.499 21.8616C11.7482 21.8616 7.50409 18.8509 7.50409 13.7921C7.50409 9.83659 10.1756 6.71297 12.5143 4.71027C13.4112 3.9568 14.3577 3.26181 15.3477 2.62981M16.8318 11.9787L16.499 11.5913L16.1677 11.9787L15.8124 12.4203L15.5321 12.79L15.2322 13.2067C14.4137 14.379 13.5007 15.9885 13.5007 17.3383C13.5007 19.0255 14.844 20.3944 16.499 20.3944C18.1541 20.3944 19.4973 19.0255 19.4973 17.3383C19.4973 15.9885 18.5843 14.379 17.7658 13.2067L17.466 12.79L17.1856 12.4203L16.8318 11.9787Z" fill="black"/>
</svg>
