<svg width="33" height="32" viewBox="0 0 33 32" fill="none" xmlns="http://www.w3.org/2000/svg">
<path d="M17.5602 0.448944C17.2789 0.161485 16.8974 0 16.4996 0C16.1019 0 15.7204 0.161485 15.4391 0.448944L9.43893 6.58234C9.2115 6.81486 9.06321 7.11595 9.01595 7.44118C8.96868 7.76642 9.02494 8.09857 9.17643 8.38863C9.54694 9.09857 10.126 9.57697 10.6915 9.90205L6.43885 14.2491C6.15764 14.5366 5.99966 14.9266 5.99966 15.3332C5.99966 15.7398 6.15764 16.1297 6.43885 16.4172C7.15587 17.1502 8.0619 17.5979 8.88992 17.877L4.93881 21.9158C4.7577 22.1012 4.62605 22.3308 4.55642 22.5829C4.4868 22.835 4.48152 23.1012 4.54109 23.3559C4.60065 23.6107 4.72308 23.8456 4.89669 24.0383C5.0703 24.231 5.28931 24.375 5.53282 24.4566C6.56785 24.8047 7.63738 25.0515 8.70541 25.2693C9.87545 25.51 11.3245 25.7477 12.973 25.901L12.076 28.6488C12.0009 28.8793 11.9805 29.1248 12.0164 29.3649C12.0523 29.6051 12.1435 29.8331 12.2825 30.0302C12.4215 30.2272 12.6044 30.3877 12.816 30.4984C13.0276 30.609 13.2619 30.6667 13.4995 30.6667H19.4997C19.7374 30.6667 19.9717 30.609 20.1833 30.4984C20.3949 30.3877 20.5777 30.2272 20.7168 30.0302C20.8558 29.8331 20.947 29.6051 20.9829 29.3649C21.0188 29.1248 20.9984 28.8793 20.9233 28.6488L20.0262 25.901C21.6763 25.7477 23.1253 25.51 24.2938 25.2708C25.3619 25.0515 26.4389 24.8047 27.4739 24.4551C27.7166 24.3725 27.9345 24.2278 28.1071 24.0349C28.2797 23.8419 28.4011 23.6071 28.4599 23.3526C28.5186 23.0982 28.5128 22.8326 28.4429 22.5812C28.373 22.3297 28.2413 22.1007 28.0605 21.9158L24.1093 17.877C24.9374 17.5995 25.8434 17.1502 26.5604 16.4172C26.8416 16.1297 26.9996 15.7398 26.9996 15.3332C26.9996 14.9266 26.8416 14.5366 26.5604 14.2491L22.3078 9.90205C22.8733 9.57697 23.4523 9.09857 23.8228 8.38863C23.9743 8.09857 24.0306 7.76642 23.9833 7.44118C23.9361 7.11595 23.7878 6.81486 23.5603 6.58234L17.5602 0.448944Z" fill="black"/>
</svg>
