<svg width="33" height="32" viewBox="0 0 33 32" fill="none" xmlns="http://www.w3.org/2000/svg">
<path d="M19.0112 1.60998L18.9603 1.52329L18.8739 1.57471L15.3239 3.68721L15.2381 3.73824L15.289 3.8241L15.7765 4.64723L15.8275 4.73346L15.9136 4.6822L17.9309 3.48157L17.3262 7.35961L17.3206 7.39517L17.339 7.42611L17.7328 8.08861L17.7839 8.17464L17.8699 8.12344L21.5512 5.93157L21.6369 5.88053L21.586 5.79469L21.0985 4.97156L21.0475 4.88544L20.9615 4.93653L18.8124 6.21212L19.4113 2.33529L19.4168 2.30007L19.3987 2.26935L19.0112 1.60998ZM9.77688 3.83998L9.64513 3.69701C7.45177 4.91724 5.62389 6.70084 4.35023 8.86361C3.07658 11.0264 2.40333 13.4899 2.4 15.9999V16C2.4 19.7396 3.88553 23.326 6.52979 25.9702C9.17406 28.6145 12.7604 30.1 16.5 30.1H16.5001C19.5487 30.0984 22.5148 29.1088 24.9535 27.2794C27.3923 25.45 29.1725 22.8795 30.0272 19.9531L29.8585 19.8564C28.6552 21.1308 27.2047 22.1467 25.5956 22.8419C23.9865 23.5372 22.2527 23.8972 20.4998 23.9C17.0786 23.9 13.7975 22.5409 11.3783 20.1217C8.95912 17.7025 7.60002 14.4214 7.6 11.0001C7.60217 8.45073 8.35968 5.95915 9.77688 3.83998ZM25.0135 6.94525L24.9213 6.90672L24.8827 6.99894L24.4515 8.03019L24.4129 8.12252L24.5052 8.16106L27.0653 9.22918L22.9847 11.374L22.9528 11.3908L22.9389 11.4241L22.5952 12.2491L22.5568 12.3413L22.6489 12.3798L27.2552 14.3048L27.3474 14.3433L27.386 14.2511L27.8173 13.2198L27.8559 13.1275L27.7635 13.089L25.0409 11.9521L29.1215 9.80729L29.1534 9.79051L29.1673 9.75723L29.5111 8.93223L29.5495 8.84001L29.4573 8.8015L25.0135 6.94525ZM17.8817 11.0039L17.848 10.9097L17.7538 10.9434L11.6413 13.1309L11.5472 13.1645L11.5808 13.2586L12.0871 14.6774L12.1207 14.7717L12.215 14.7379L15.8025 13.4533L13.6622 19.3723L13.65 19.4062L13.6621 19.4401L14.0684 20.5713L14.1021 20.6653L14.1961 20.6317L20.5336 18.3692L20.6278 18.3356L20.5942 18.2414L20.0879 16.8227L20.0543 16.7284L19.96 16.7621L16.1475 18.128L18.2878 12.209L18.3 12.1752L18.2879 12.1414L17.8817 11.0039Z" fill="black" stroke="black" stroke-width="0.2"/>
</svg>
