<svg width="37" height="36" viewBox="0 0 37 36" fill="none" xmlns="http://www.w3.org/2000/svg">
<g clip-path="url(#clip0_686_777)">
<path fill-rule="evenodd" clip-rule="evenodd" d="M20.7221 3.05442C20.7221 2.57423 20.5313 2.1137 20.1918 1.77414C19.8522 1.43459 19.3917 1.24384 18.9115 1.24384C18.4313 1.24384 17.9708 1.43459 17.6312 1.77414C17.2917 2.1137 17.1009 2.57423 17.1009 3.05442V32.7457C17.1009 33.2259 17.2917 33.6864 17.6312 34.0259C17.9708 34.3655 18.4313 34.5562 18.9115 34.5562C19.3917 34.5562 19.8522 34.3655 20.1918 34.0259C20.5313 33.6864 20.7221 33.2259 20.7221 32.7457V3.05442ZM11.6692 6.95322C12.1494 6.95322 12.6099 7.14398 12.9494 7.48353C13.289 7.82308 13.4797 8.28361 13.4797 8.76381V27.0339C13.4797 27.5141 13.289 27.9746 12.9494 28.3141C12.6099 28.6537 12.1494 28.8444 11.6692 28.8444C11.189 28.8444 10.7284 28.6537 10.3889 28.3141C10.0493 27.9746 9.85856 27.5141 9.85856 27.0339V8.76381C9.85856 8.28361 10.0493 7.82308 10.3889 7.48353C10.7284 7.14398 11.189 6.95322 11.6692 6.95322ZM4.4268 12.6626C4.907 12.6626 5.36753 12.8534 5.70708 13.1929C6.04663 13.5325 6.23739 13.993 6.23739 14.4732V21.3269C6.23739 21.8071 6.04663 22.2676 5.70708 22.6072C5.36753 22.9467 4.907 23.1375 4.4268 23.1375C3.9466 23.1375 3.48607 22.9467 3.14652 22.6072C2.80697 22.2676 2.61621 21.8071 2.61621 21.3269V14.4732C2.61621 13.993 2.80697 13.5325 3.14652 13.1929C3.48607 12.8534 3.9466 12.6626 4.4268 12.6626ZM26.1539 6.95322C26.6341 6.95322 27.0946 7.14398 27.4341 7.48353C27.7737 7.82308 27.9644 8.28361 27.9644 8.76381V27.0339C27.9644 27.5141 27.7737 27.9746 27.4341 28.3141C27.0946 28.6537 26.6341 28.8444 26.1539 28.8444C25.6737 28.8444 25.2131 28.6537 24.8736 28.3141C24.534 27.9746 24.3433 27.5141 24.3433 27.0339V8.76381C24.3433 8.28361 24.534 7.82308 24.8736 7.48353C25.2131 7.14398 25.6737 6.95322 26.1539 6.95322ZM35.2068 14.4732C35.2068 13.993 35.016 13.5325 34.6765 13.1929C34.3369 12.8534 33.8764 12.6626 33.3962 12.6626C32.916 12.6626 32.4555 12.8534 32.1159 13.1929C31.7764 13.5325 31.5856 13.993 31.5856 14.4732V21.3269C31.5856 21.8071 31.7764 22.2676 32.1159 22.6072C32.4555 22.9467 32.916 23.1375 33.3962 23.1375C33.8764 23.1375 34.3369 22.9467 34.6765 22.6072C35.016 22.2676 35.2068 21.8071 35.2068 21.3269V14.4732Z" fill="black"/>
</g>
<path d="M1.6001 34.7977L35.8103 1.00002" stroke="black" stroke-width="2" stroke-linecap="round"/>
<defs>
<clipPath id="clip0_686_777">
<rect width="33.7977" height="33.7977" fill="white" transform="translate(2.0127 1)"/>
</clipPath>
</defs>
</svg>
