<svg width="33" height="32" viewBox="0 0 33 32" fill="none" xmlns="http://www.w3.org/2000/svg">
<path d="M11.39 12.4389V21.3291C10.439 20.6673 9.29181 20.3467 8.1353 20.4196C6.97879 20.4925 5.88101 20.9545 5.0207 21.7305C4.16038 22.5065 3.58818 23.5507 3.39727 24.6932C3.20635 25.8356 3.40795 27.009 3.96925 28.0224C4.53055 29.0357 5.4185 29.8293 6.48853 30.2739C7.55855 30.7185 8.74765 30.788 9.86223 30.4711C10.9768 30.1541 11.9512 29.4694 12.6269 28.5283C13.3025 27.5873 13.6395 26.4454 13.5831 25.2885L13.589 25.1727V14.6369L18.7962 19.8433C18.1652 20.8281 17.8898 21.9989 18.0158 23.1615C18.1418 24.3242 18.6615 25.409 19.4888 26.2359C20.3161 27.0629 21.4014 27.5823 22.5646 27.7083C23.7278 27.8342 24.8991 27.5589 25.8844 26.9282L29.3031 30.3454C29.5104 30.5456 29.7881 30.6566 30.0764 30.6542C30.3646 30.6518 30.6405 30.5364 30.8444 30.3327C31.0484 30.129 31.1641 29.8534 31.1668 29.5653C31.1694 29.2771 31.0587 28.9995 30.8585 28.7921L3.73741 1.68329C3.63675 1.57531 3.51537 1.4887 3.38049 1.42864C3.24562 1.36857 3.10003 1.33627 2.9524 1.33367C2.80477 1.33106 2.65812 1.35821 2.52122 1.41348C2.38431 1.46876 2.25994 1.55103 2.15553 1.65539C2.05113 1.75975 1.96882 1.88406 1.91352 2.0209C1.85822 2.15775 1.83106 2.30433 1.83367 2.45189C1.83627 2.59945 1.86859 2.74498 1.92868 2.87979C1.98877 3.0146 2.07542 3.13593 2.18344 3.23655L11.39 12.4389ZM23.118 17.4797C22.9665 17.4797 22.8175 17.486 22.6709 17.4987L28.23 23.0553C28.2482 22.8232 28.2526 22.5903 28.2432 22.3578L28.249 22.242V2.45992C28.2489 2.28872 28.2088 2.11992 28.1319 1.96697C28.0549 1.81402 27.9433 1.68115 27.8059 1.57896C27.6685 1.47677 27.5091 1.40808 27.3404 1.37836C27.1717 1.34864 26.9984 1.35872 26.8344 1.4078L12.1743 5.80382C12.0336 5.84581 11.9027 5.91555 11.7894 6.00892C11.6761 6.10229 11.5826 6.21741 11.5146 6.34746L17.5252 12.3554L26.05 9.79834V18.3999C25.1897 17.8009 24.1665 17.4798 23.118 17.4797Z" fill="black"/>
</svg>
