<svg width="33" height="32" viewBox="0 0 33 32" fill="none" xmlns="http://www.w3.org/2000/svg">
<path d="M29.0163 8.71067C27.9681 7.66504 26.5681 6.93504 24.9431 6.58567C24.7908 6.55288 24.6482 6.48495 24.5268 6.38729C24.4054 6.28963 24.3084 6.16494 24.2437 6.02317C23.6462 4.718 22.7414 3.57694 21.6069 2.69754C20.155 1.58692 18.3894 1.00004 16.5 1.00004C14.3471 0.99321 12.2669 1.77899 10.6562 3.20754C9.14375 4.55504 8.09937 6.41629 7.62937 8.57192C7.59018 8.75439 7.50086 8.9223 7.37146 9.05678C7.24205 9.19127 7.0777 9.28698 6.89687 9.33317C5.33437 9.72692 4.665 10.1169 3.82125 10.8682C2.625 11.9332 2 13.3838 2 15.05C2 16.9594 2.70188 18.5275 4.02938 19.585C5.1925 20.5107 6.78125 21 8.625 21H23.25C25.325 21 27.2569 20.2838 28.6875 18.9825C30.1775 17.6294 31 15.7532 31 13.7C31 11.7319 30.3125 10.0069 29.0163 8.71067ZM7.5 28C7.31902 27.9999 7.14146 27.9507 6.98626 27.8576C6.83105 27.7645 6.70402 27.6311 6.6187 27.4715C6.53338 27.3119 6.49297 27.1321 6.50179 26.9513C6.5106 26.7706 6.56831 26.5956 6.66875 26.445L8.66875 23.445C8.74163 23.3358 8.83532 23.242 8.94446 23.1689C9.0536 23.0959 9.17606 23.0451 9.30484 23.0194C9.43363 22.9937 9.56621 22.9936 9.69503 23.0191C9.82385 23.0446 9.94638 23.0953 10.0556 23.1682C10.1649 23.2411 10.2587 23.3347 10.3317 23.4439C10.4048 23.553 10.4556 23.6755 10.4813 23.8043C10.507 23.933 10.5071 24.0656 10.4816 24.1945C10.456 24.3233 10.4054 24.4458 10.3325 24.555L8.3325 27.555C8.2411 27.692 8.11729 27.8043 7.97206 27.882C7.82683 27.9596 7.66468 28.0002 7.5 28ZM10.5 31C10.3191 30.9998 10.1416 30.9505 9.98648 30.8574C9.83136 30.7643 9.70442 30.6308 9.61918 30.4712C9.53393 30.3116 9.49358 30.1319 9.50242 29.9512C9.51126 29.7705 9.56896 29.5955 9.66938 29.445L13.6694 23.445C13.7423 23.3358 13.8359 23.242 13.9451 23.1689C14.0542 23.0959 14.1767 23.0451 14.3055 23.0194C14.4343 22.9937 14.5668 22.9936 14.6957 23.0191C14.8245 23.0446 14.947 23.0953 15.0562 23.1682C15.1655 23.2411 15.2593 23.3347 15.3323 23.4439C15.4054 23.553 15.4562 23.6755 15.4819 23.8043C15.5076 23.933 15.5077 24.0656 15.4822 24.1945C15.4567 24.3233 15.406 24.4458 15.3331 24.555L11.3331 30.555C11.2417 30.6921 11.1178 30.8045 10.9724 30.8821C10.8271 30.9597 10.6648 31.0003 10.5 31ZM17.5 28C17.319 27.9999 17.1415 27.9507 16.9863 27.8576C16.8311 27.7645 16.704 27.6311 16.6187 27.4715C16.5334 27.3119 16.493 27.1321 16.5018 26.9513C16.5106 26.7706 16.5683 26.5956 16.6688 26.445L18.6688 23.445C18.8159 23.2244 19.0448 23.0713 19.3048 23.0194C19.5649 22.9675 19.835 23.021 20.0556 23.1682C20.2763 23.3154 20.4294 23.5442 20.4813 23.8043C20.5332 24.0644 20.4797 24.3344 20.3325 24.555L18.3325 27.555C18.2411 27.692 18.1173 27.8043 17.9721 27.882C17.8268 27.9596 17.6647 28.0002 17.5 28ZM20.5 31C20.319 30.9999 20.1415 30.9507 19.9863 30.8576C19.8311 30.7645 19.704 30.6311 19.6187 30.4715C19.5334 30.3119 19.493 30.1321 19.5018 29.9513C19.5106 29.7706 19.5683 29.5956 19.6688 29.445L23.6688 23.445C23.8159 23.2244 24.0448 23.0713 24.3048 23.0194C24.5649 22.9675 24.835 23.021 25.0556 23.1682C25.2763 23.3154 25.4294 23.5442 25.4813 23.8043C25.5332 24.0644 25.4797 24.3344 25.3325 24.555L21.3325 30.555C21.2411 30.692 21.1173 30.8043 20.9721 30.882C20.8268 30.9596 20.6647 31.0002 20.5 31Z" fill="black"/>
</svg>
