<svg width="1440" height="978" viewBox="0 0 1440 978" fill="none" xmlns="http://www.w3.org/2000/svg">
<g filter="url(#filter0_d_1383_650)">
<path d="M-0.227661 84.696C384.333 -124.762 1185.71 372.154 1446.55 84.696C1707.38 -202.762 2569.37 686.746 1446.55 877.859C323.721 1068.97 1292.21 545.654 -0.227661 877.859C-1292.67 1210.06 -384.788 294.154 -0.227661 84.696Z" fill="#BDCBFF"/>
<path d="M0.0114746 85.1351C96.0198 32.8425 218.089 24.6163 351.34 37.2525C474.051 48.8892 606.173 78.2097 736.055 107.033C747.205 109.508 758.339 111.979 769.449 114.434C909.95 145.49 1046.64 174.121 1164.52 177.012C1282.39 179.903 1381.56 157.057 1446.92 85.032C1511.91 13.4067 1614.41 15.0197 1714.27 60.9354C1814.12 106.843 1911.15 196.976 1964.97 302.041C2018.79 407.096 2029.38 527.012 1956.51 632.593C1883.61 738.205 1727.12 829.596 1446.46 877.366C1165.76 925.143 1015.84 928.254 928.641 911.277C885.056 902.792 857.156 889.291 836.428 873.85C819.943 861.57 807.988 848.063 796.259 834.812C793.227 831.386 790.21 827.978 787.134 824.612C772.166 808.234 755.837 792.924 729.646 781.801C703.464 770.682 667.468 763.764 613.179 764.085C504.614 764.727 322.759 794.323 -0.352112 877.374C-161.89 918.896 -289.032 940.912 -387.105 947.248C-485.188 953.586 -554.142 944.237 -599.343 923.078C-644.503 901.938 -665.957 869.012 -669.094 828.075C-672.234 787.088 -657.016 738.012 -628.661 684.635C-571.958 577.892 -462.858 454.193 -343.874 344.076C-224.894 233.962 -96.0804 137.473 0.0114746 85.1351Z" stroke="#3F3CAC"/>
</g>
<defs>
<filter id="filter0_d_1383_650" x="-698" y="0" width="2734.75" height="977.702" filterUnits="userSpaceOnUse" color-interpolation-filters="sRGB">
<feFlood flood-opacity="0" result="BackgroundImageFix"/>
<feColorMatrix in="SourceAlpha" type="matrix" values="0 0 0 0 0 0 0 0 0 0 0 0 0 0 0 0 0 0 127 0" result="hardAlpha"/>
<feOffset/>
<feGaussianBlur stdDeviation="14"/>
<feComposite in2="hardAlpha" operator="out"/>
<feColorMatrix type="matrix" values="0 0 0 0 0 0 0 0 0 0 0 0 0 0 0 0 0 0 0.2 0"/>
<feBlend mode="normal" in2="BackgroundImageFix" result="effect1_dropShadow_1383_650"/>
<feBlend mode="normal" in="SourceGraphic" in2="effect1_dropShadow_1383_650" result="shape"/>
</filter>
</defs>
</svg>
