<svg width="24" height="24" viewBox="0 0 24 24" fill="none" xmlns="http://www.w3.org/2000/svg">
<path fill-rule="evenodd" clip-rule="evenodd" d="M13.5788 1.45905C13.5788 1.11806 13.4434 0.791035 13.2022 0.549917C12.9611 0.308799 12.6341 0.17334 12.2931 0.17334C11.9521 0.17334 11.6251 0.308799 11.384 0.549917C11.1429 0.791035 11.0074 1.11806 11.0074 1.45905V22.5431C11.0074 22.884 11.1429 23.2111 11.384 23.4522C11.6251 23.6933 11.9521 23.8288 12.2931 23.8288C12.6341 23.8288 12.9611 23.6933 13.2022 23.4522C13.4434 23.2111 13.5788 22.884 13.5788 22.5431V1.45905ZM7.15025 4.22763C7.49124 4.22763 7.81827 4.36308 8.05939 4.6042C8.30051 4.84532 8.43597 5.17235 8.43597 5.51334V18.4871C8.43597 18.828 8.30051 19.1551 8.05939 19.3962C7.81827 19.6373 7.49124 19.7728 7.15025 19.7728C6.80926 19.7728 6.48223 19.6373 6.24111 19.3962C6 19.1551 5.86454 18.828 5.86454 18.4871V5.51334C5.86454 5.17235 6 4.84532 6.24111 4.6042C6.48223 4.36308 6.80926 4.22763 7.15025 4.22763ZM2.00739 8.28191C2.34839 8.28191 2.67541 8.41737 2.91653 8.65849C3.15765 8.89961 3.29311 9.22663 3.29311 9.56763V14.4345C3.29311 14.7755 3.15765 15.1025 2.91653 15.3436C2.67541 15.5847 2.34839 15.7202 2.00739 15.7202C1.6664 15.7202 1.33937 15.5847 1.09826 15.3436C0.857138 15.1025 0.72168 14.7755 0.72168 14.4345V9.56763C0.72168 9.22663 0.857138 8.89961 1.09826 8.65849C1.33937 8.41737 1.6664 8.28191 2.00739 8.28191ZM17.436 4.22763C17.777 4.22763 18.104 4.36308 18.3451 4.6042C18.5862 4.84532 18.7217 5.17235 18.7217 5.51334V18.4871C18.7217 18.828 18.5862 19.1551 18.3451 19.3962C18.104 19.6373 17.777 19.7728 17.436 19.7728C17.095 19.7728 16.7679 19.6373 16.5268 19.3962C16.2857 19.1551 16.1503 18.828 16.1503 18.4871V5.51334C16.1503 5.17235 16.2857 4.84532 16.5268 4.6042C16.7679 4.36308 17.095 4.22763 17.436 4.22763ZM23.8645 9.56763C23.8645 9.22663 23.7291 8.89961 23.488 8.65849C23.2468 8.41737 22.9198 8.28191 22.5788 8.28191C22.2378 8.28191 21.9108 8.41737 21.6697 8.65849C21.4286 8.89961 21.2931 9.22663 21.2931 9.56763V14.4345C21.2931 14.7755 21.4286 15.1025 21.6697 15.3436C21.9108 15.5847 22.2378 15.7202 22.5788 15.7202C22.9198 15.7202 23.2468 15.5847 23.488 15.3436C23.7291 15.1025 23.8645 14.7755 23.8645 14.4345V9.56763Z" fill="black"/>
</svg>
