<svg width="118" height="118" viewBox="0 0 118 118" fill="none" xmlns="http://www.w3.org/2000/svg">
<g filter="url(#filter0_d_130_1486)">
<circle cx="57" cy="57" r="43" fill="#EF894F"/>
</g>
<path d="M74.2144 54.4019C76.2144 55.5566 76.2144 58.4433 74.2144 59.598L50.6429 73.207C48.6429 74.3617 46.1429 72.9183 46.1429 70.6089V43.391C46.1429 41.0816 48.6429 39.6382 50.6429 40.7929L74.2144 54.4019Z" fill="white"/>
<g filter="url(#filter1_d_130_1486)">
<path d="M104 57C104 82.9574 82.9574 104 57 104C31.0426 104 10 82.9574 10 57C10 31.0426 31.0426 10 57 10C82.9574 10 104 31.0426 104 57ZM12.35 57C12.35 81.6595 32.3405 101.65 57 101.65C81.6595 101.65 101.65 81.6595 101.65 57C101.65 32.3405 81.6595 12.35 57 12.35C32.3405 12.35 12.35 32.3405 12.35 57Z" fill="#EF894F"/>
</g>
<defs>
<filter id="filter0_d_130_1486" x="4" y="4" width="110" height="110" filterUnits="userSpaceOnUse" color-interpolation-filters="sRGB">
<feFlood flood-opacity="0" result="BackgroundImageFix"/>
<feColorMatrix in="SourceAlpha" type="matrix" values="0 0 0 0 0 0 0 0 0 0 0 0 0 0 0 0 0 0 127 0" result="hardAlpha"/>
<feOffset dx="2" dy="2"/>
<feGaussianBlur stdDeviation="6"/>
<feComposite in2="hardAlpha" operator="out"/>
<feColorMatrix type="matrix" values="0 0 0 0 0 0 0 0 0 0 0 0 0 0 0 0 0 0 0.2 0"/>
<feBlend mode="normal" in2="BackgroundImageFix" result="effect1_dropShadow_130_1486"/>
<feBlend mode="normal" in="SourceGraphic" in2="effect1_dropShadow_130_1486" result="shape"/>
</filter>
<filter id="filter1_d_130_1486" x="0" y="0" width="118" height="118" filterUnits="userSpaceOnUse" color-interpolation-filters="sRGB">
<feFlood flood-opacity="0" result="BackgroundImageFix"/>
<feColorMatrix in="SourceAlpha" type="matrix" values="0 0 0 0 0 0 0 0 0 0 0 0 0 0 0 0 0 0 127 0" result="hardAlpha"/>
<feOffset dx="2" dy="2"/>
<feGaussianBlur stdDeviation="6"/>
<feComposite in2="hardAlpha" operator="out"/>
<feColorMatrix type="matrix" values="0 0 0 0 0 0 0 0 0 0 0 0 0 0 0 0 0 0 0.2 0"/>
<feBlend mode="normal" in2="BackgroundImageFix" result="effect1_dropShadow_130_1486"/>
<feBlend mode="normal" in="SourceGraphic" in2="effect1_dropShadow_130_1486" result="shape"/>
</filter>
</defs>
</svg>
