<svg width="390" height="844" viewBox="0 0 390 844" fill="none" xmlns="http://www.w3.org/2000/svg">
<g clip-path="url(#clip0_92_891)">
<rect width="390" height="844" fill="#F7F1FE"/>
<g filter="url(#filter0_f_92_891)">
<path d="M412 130C412 183.019 369.019 226 316 226C262.981 226 220 183.019 220 130C220 76.9807 262.981 34 316 34C369.019 34 412 76.9807 412 130Z" fill="#7B1DEB" fill-opacity="0.35"/>
</g>
<g filter="url(#filter1_f_92_891)">
<path d="M170 701C170 754.019 127.019 797 74 797C20.9807 797 -22 754.019 -22 701C-22 647.981 20.9807 605 74 605C127.019 605 170 647.981 170 701Z" fill="#7B1DEB" fill-opacity="0.35"/>
</g>
<path d="M48.1197 15.9929C48.8304 15.9929 49.5141 16.1121 50.1708 16.3505C50.832 16.5889 51.4213 16.969 51.9386 17.4908C52.4603 18.0125 52.8719 18.7053 53.1733 19.5689C53.4792 20.428 53.6344 21.4828 53.6389 22.7333C53.6389 23.9073 53.5062 24.9554 53.2408 25.8775C52.9799 26.7951 52.6043 27.5755 52.114 28.2188C51.6237 28.862 51.0322 29.3523 50.3395 29.6896C49.6468 30.0225 48.8731 30.1889 48.0185 30.1889C47.0964 30.1889 46.2822 30.0112 45.576 29.6559C44.8698 29.296 44.3008 28.808 43.869 28.1918C43.4416 27.571 43.183 26.8738 43.093 26.1001H45.9741C46.0865 26.6039 46.3227 26.9953 46.6825 27.2741C47.0424 27.5485 47.4877 27.6857 48.0185 27.6857C48.9181 27.6857 49.6018 27.2944 50.0696 26.5117C50.5374 25.7246 50.7736 24.6473 50.7781 23.2798H50.6836C50.4767 23.6847 50.1978 24.0333 49.8469 24.3256C49.4961 24.6135 49.0935 24.8362 48.6392 24.9936C48.1894 25.151 47.7103 25.2298 47.2021 25.2298C46.3879 25.2298 45.6615 25.0386 45.0227 24.6562C44.384 24.2739 43.8802 23.7476 43.5114 23.0774C43.1425 22.4072 42.9581 21.6425 42.9581 20.7834C42.9536 19.8568 43.1673 19.0314 43.5991 18.3072C44.0309 17.583 44.6336 17.0162 45.4073 16.6069C46.1855 16.1931 47.0896 15.9884 48.1197 15.9929ZM48.1399 18.2869C47.6856 18.2869 47.2808 18.3949 46.9254 18.6108C46.5746 18.8267 46.2957 19.1168 46.0888 19.4812C45.8864 19.8455 45.7874 20.2526 45.7919 20.7024C45.7919 21.1567 45.8909 21.5661 46.0888 21.9304C46.2912 22.2902 46.5656 22.5781 46.9119 22.794C47.2628 23.0054 47.6631 23.1112 48.1129 23.1112C48.4503 23.1112 48.7629 23.0482 49.0508 22.9222C49.3387 22.7963 49.5883 22.6231 49.7997 22.4027C50.0156 22.1778 50.1843 21.9192 50.3058 21.6268C50.4272 21.3344 50.4879 21.024 50.4879 20.6957C50.4834 20.2594 50.38 19.859 50.1776 19.4947C49.9751 19.1303 49.6963 18.8379 49.3409 18.6175C48.9856 18.3971 48.5852 18.2869 48.1399 18.2869ZM57.37 28.3942C56.9247 28.3942 56.5424 28.2367 56.223 27.9219C55.9081 27.607 55.7507 27.2247 55.7507 26.7749C55.7507 26.334 55.9081 25.9562 56.223 25.6413C56.5424 25.3265 56.9247 25.169 57.37 25.169C57.8018 25.169 58.1797 25.3265 58.5036 25.6413C58.8274 25.9562 58.9893 26.334 58.9893 26.7749C58.9893 27.0717 58.9129 27.3439 58.7599 27.5913C58.6115 27.8342 58.4158 28.0298 58.1729 28.1783C57.93 28.3222 57.6624 28.3942 57.37 28.3942ZM57.37 21.6133C56.9247 21.6133 56.5424 21.4558 56.223 21.141C55.9081 20.8261 55.7507 20.4438 55.7507 19.994C55.7507 19.5531 55.9081 19.1776 56.223 18.8672C56.5424 18.5523 56.9247 18.3949 57.37 18.3949C57.8018 18.3949 58.1797 18.5523 58.5036 18.8672C58.8274 19.1776 58.9893 19.5531 58.9893 19.994C58.9893 20.2953 58.9129 20.5697 58.7599 20.8171C58.6115 21.06 58.4158 21.2534 58.1729 21.3974C57.93 21.5413 57.6624 21.6133 57.37 21.6133ZM61.113 27.571V25.2702L66.8818 16.1818H68.8655V19.3665H67.6915L64.0548 25.1218V25.2298H72.2526V27.571H61.113ZM67.7455 30V26.8693L67.7994 25.8505V16.1818H70.5388V30H67.7455ZM80.0253 16.1818V30H77.1038V18.9549H77.0228L73.8584 20.9386V18.3477L77.2792 16.1818H80.0253Z" fill="black"/>
<path d="M357.892 20.2857V25.6428C359.839 25.1891 361.106 24.1337 361.106 22.9643C361.106 21.7949 359.839 20.7394 357.892 20.2857Z" fill="#C0C0C0"/>
<rect x="334.57" y="16.25" width="23.5" height="12.5" rx="3.75" fill="#212121" stroke="#C0C0C0" stroke-width="0.5"/>
<path d="M342.556 18.1534C343.005 18.1534 343.437 18.2287 343.852 18.3793C344.27 18.5298 344.642 18.7699 344.968 19.0994C345.298 19.429 345.558 19.8665 345.748 20.4119C345.941 20.9545 346.039 21.6207 346.042 22.4105C346.042 23.152 345.958 23.8139 345.791 24.3963C345.626 24.9759 345.389 25.4688 345.079 25.875C344.77 26.2812 344.396 26.5909 343.958 26.804C343.521 27.0142 343.032 27.1193 342.493 27.1193C341.91 27.1193 341.396 27.0071 340.95 26.7827C340.504 26.5554 340.145 26.2472 339.872 25.858C339.602 25.4659 339.439 25.0256 339.382 24.5369H341.201C341.272 24.8551 341.422 25.1023 341.649 25.2784C341.876 25.4517 342.157 25.5384 342.493 25.5384C343.061 25.5384 343.493 25.2912 343.788 24.7969C344.083 24.2997 344.233 23.6193 344.235 22.7557H344.176C344.045 23.0114 343.869 23.2315 343.647 23.4162C343.426 23.598 343.172 23.7386 342.885 23.8381C342.6 23.9375 342.298 23.9872 341.977 23.9872C341.463 23.9872 341.004 23.8665 340.6 23.625C340.197 23.3835 339.879 23.0511 339.646 22.6278C339.413 22.2045 339.297 21.7216 339.297 21.179C339.294 20.5938 339.429 20.0724 339.701 19.6151C339.974 19.1577 340.355 18.7997 340.843 18.5412C341.335 18.2798 341.906 18.1506 342.556 18.1534ZM342.569 19.6023C342.282 19.6023 342.027 19.6705 341.802 19.8068C341.581 19.9432 341.404 20.1264 341.274 20.3565C341.146 20.5866 341.083 20.8437 341.086 21.1278C341.086 21.4148 341.149 21.6733 341.274 21.9034C341.402 22.1307 341.575 22.3125 341.794 22.4489C342.015 22.5824 342.268 22.6491 342.552 22.6491C342.765 22.6491 342.963 22.6094 343.145 22.5298C343.326 22.4503 343.484 22.3409 343.618 22.2017C343.754 22.0597 343.86 21.8963 343.937 21.7116C344.014 21.527 344.052 21.331 344.052 21.1236C344.049 20.848 343.984 20.5952 343.856 20.3651C343.728 20.1349 343.552 19.9503 343.328 19.8111C343.103 19.6719 342.85 19.6023 342.569 19.6023ZM350.478 18.1534C350.927 18.1534 351.359 18.2287 351.774 18.3793C352.191 18.5298 352.564 18.7699 352.89 19.0994C353.22 19.429 353.48 19.8665 353.67 20.4119C353.863 20.9545 353.961 21.6207 353.964 22.4105C353.964 23.152 353.88 23.8139 353.713 24.3963C353.548 24.9759 353.311 25.4688 353.001 25.875C352.691 26.2812 352.318 26.5909 351.88 26.804C351.443 27.0142 350.954 27.1193 350.414 27.1193C349.832 27.1193 349.318 27.0071 348.872 26.7827C348.426 26.5554 348.066 26.2472 347.794 25.858C347.524 25.4659 347.36 25.0256 347.304 24.5369H349.123C349.194 24.8551 349.343 25.1023 349.571 25.2784C349.798 25.4517 350.079 25.5384 350.414 25.5384C350.983 25.5384 351.414 25.2912 351.71 24.7969C352.005 24.2997 352.154 23.6193 352.157 22.7557H352.098C351.967 23.0114 351.791 23.2315 351.569 23.4162C351.348 23.598 351.093 23.7386 350.806 23.8381C350.522 23.9375 350.22 23.9872 349.899 23.9872C349.385 23.9872 348.926 23.8665 348.522 23.625C348.119 23.3835 347.801 23.0511 347.568 22.6278C347.335 22.2045 347.218 21.7216 347.218 21.179C347.216 20.5938 347.35 20.0724 347.623 19.6151C347.896 19.1577 348.277 18.7997 348.765 18.5412C349.257 18.2798 349.828 18.1506 350.478 18.1534ZM350.491 19.6023C350.204 19.6023 349.949 19.6705 349.724 19.8068C349.502 19.9432 349.326 20.1264 349.196 20.3565C349.068 20.5866 349.005 20.8437 349.008 21.1278C349.008 21.4148 349.071 21.6733 349.196 21.9034C349.324 22.1307 349.497 22.3125 349.716 22.4489C349.937 22.5824 350.19 22.6491 350.474 22.6491C350.687 22.6491 350.885 22.6094 351.066 22.5298C351.248 22.4503 351.406 22.3409 351.539 22.2017C351.676 22.0597 351.782 21.8963 351.859 21.7116C351.936 21.527 351.974 21.331 351.974 21.1236C351.971 20.848 351.906 20.5952 351.778 20.3651C351.65 20.1349 351.474 19.9503 351.25 19.8111C351.025 19.6719 350.772 19.6023 350.491 19.6023Z" fill="#F7F1FE"/>
<path fill-rule="evenodd" clip-rule="evenodd" d="M320.656 18.5832C323.17 18.5833 325.588 19.5491 327.411 21.281C327.548 21.4147 327.767 21.413 327.902 21.2772L329.214 19.9538C329.283 19.8849 329.321 19.7916 329.32 19.6946C329.32 19.5975 329.28 19.5047 329.211 19.4366C324.428 14.8545 316.882 14.8545 312.099 19.4366C312.03 19.5046 311.991 19.5974 311.99 19.6945C311.99 19.7916 312.028 19.8849 312.096 19.9538L313.408 21.2772C313.543 21.4132 313.763 21.4149 313.9 21.281C315.722 19.549 318.141 18.5832 320.656 18.5832ZM320.656 22.8886C322.037 22.8885 323.37 23.4018 324.394 24.3288C324.532 24.4604 324.75 24.4575 324.885 24.3224L326.196 22.999C326.265 22.9296 326.303 22.8354 326.302 22.7376C326.301 22.6397 326.261 22.5464 326.19 22.4784C323.072 19.5786 318.243 19.5786 315.124 22.4784C315.054 22.5464 315.014 22.6398 315.013 22.7377C315.012 22.8356 315.05 22.9297 315.119 22.999L316.429 24.3224C316.564 24.4575 316.782 24.4604 316.921 24.3288C317.944 23.4025 319.275 22.8892 320.656 22.8886ZM323.281 25.7855C323.283 25.8836 323.244 25.9782 323.174 26.047L320.908 28.3333C320.841 28.4005 320.75 28.4384 320.656 28.4384C320.561 28.4384 320.471 28.4005 320.404 28.3333L318.138 26.047C318.068 25.9782 318.029 25.8835 318.031 25.7854C318.033 25.6873 318.076 25.5944 318.149 25.5286C319.596 24.3048 321.716 24.3048 323.163 25.5286C323.236 25.5944 323.279 25.6874 323.281 25.7855Z" fill="#212121"/>
<path fill-rule="evenodd" clip-rule="evenodd" d="M305.873 17H304.756C304.139 17 303.639 17.5004 303.639 18.1176V27.8034C303.639 28.4206 304.139 28.921 304.756 28.921H305.873C306.49 28.921 306.99 28.4206 306.99 27.8034V18.1176C306.99 17.5004 306.49 17 305.873 17ZM299.543 19.6079H300.66C301.277 19.6079 301.777 20.1083 301.777 20.7255V27.8036C301.777 28.4208 301.277 28.9212 300.66 28.9212H299.543C298.926 28.9212 298.426 28.4208 298.426 27.8036V20.7255C298.426 20.1083 298.926 19.6079 299.543 19.6079ZM295.447 22.2154H294.33C293.713 22.2154 293.213 22.7158 293.213 23.333V27.8034C293.213 28.4206 293.713 28.921 294.33 28.921H295.447C296.064 28.921 296.564 28.4206 296.564 27.8034V23.333C296.564 22.7158 296.064 22.2154 295.447 22.2154ZM290.234 24.4506H289.117C288.5 24.4506 288 24.9509 288 25.5682V27.8034C288 28.4206 288.5 28.921 289.117 28.921H290.234C290.851 28.921 291.351 28.4206 291.351 27.8034V25.5682C291.351 24.9509 290.851 24.4506 290.234 24.4506Z" fill="#212121"/>
<g filter="url(#filter2_d_92_891)">
<path d="M297.318 465.376C297.318 462.528 296.757 459.708 295.667 457.077C294.577 454.445 292.979 452.054 290.966 450.04C288.952 448.026 286.561 446.429 283.929 445.339C281.298 444.249 278.478 443.688 275.63 443.688C272.782 443.688 269.961 444.249 267.33 445.339C264.699 446.429 262.308 448.026 260.294 450.04C258.28 452.054 256.682 454.445 255.592 457.077C254.502 459.708 253.941 462.528 253.941 465.376L275.63 465.376H297.318Z" fill="#FD7E14"/>
<path d="M253.941 465.376C253.941 468.224 254.502 471.045 255.592 473.676C256.682 476.307 258.28 478.698 260.294 480.712C262.308 482.726 264.699 484.324 267.33 485.414C269.961 486.504 272.781 487.065 275.63 487.065C278.478 487.065 281.298 486.504 283.929 485.414C286.561 484.324 288.952 482.726 290.966 480.712C292.979 478.698 294.577 476.307 295.667 473.676C296.757 471.045 297.318 468.224 297.318 465.376H292.98C292.98 467.655 292.531 469.911 291.659 472.016C290.788 474.121 289.509 476.034 287.898 477.645C286.287 479.256 284.374 480.534 282.269 481.406C280.164 482.278 277.908 482.727 275.63 482.727C273.351 482.727 271.095 482.278 268.99 481.406C266.885 480.534 264.972 479.256 263.361 477.645C261.75 476.034 260.472 474.121 259.6 472.016C258.728 469.911 258.279 467.655 258.279 465.376H253.941Z" fill="#FD7E14"/>
<path d="M209.628 465.376C209.628 461.087 208.356 456.894 205.973 453.327C203.59 449.76 200.203 446.98 196.24 445.339C192.277 443.697 187.916 443.268 183.709 444.105C179.502 444.942 175.637 447.007 172.604 450.04C169.571 453.074 167.506 456.938 166.669 461.145C165.832 465.352 166.261 469.713 167.903 473.676C169.544 477.639 172.324 481.026 175.891 483.409C179.457 485.793 183.651 487.065 187.94 487.065V465.376H209.628Z" fill="#28A745"/>
<path d="M187.94 487.065C190.788 487.065 193.608 486.504 196.239 485.414C198.871 484.324 201.262 482.726 203.276 480.712C205.29 478.698 206.887 476.307 207.977 473.676C209.067 471.045 209.628 468.224 209.628 465.376H205.29C205.29 467.655 204.842 469.911 203.97 472.016C203.098 474.121 201.82 476.034 200.208 477.645C198.597 479.256 196.685 480.534 194.58 481.406C192.475 482.278 190.218 482.727 187.94 482.727V487.065Z" fill="#28A745"/>
<circle cx="106.87" cy="465.376" r="21.6882" fill="#007BFF"/>
<circle cx="106.87" cy="465.376" r="4.51838" fill="white"/>
<path d="M158.775 342.56L187.994 371.3L217.213 342.56V420.318C217.213 429.154 210.05 436.318 201.213 436.318H174.775C165.939 436.318 158.775 429.154 158.775 420.318V342.56Z" fill="#28A745"/>
<path d="M158.866 275.438C158.866 259.301 171.948 246.219 188.085 246.219C204.222 246.219 217.304 259.301 217.304 275.438V333.876L188.085 305.139L158.866 333.394V275.438Z" fill="#28A745"/>
<g opacity="0.3">
<path d="M188.27 324.064C200.555 324.064 208.234 337.364 202.091 348.004C200.69 350.43 198.676 352.445 196.249 353.846C193.823 355.247 191.071 355.984 188.27 355.984C175.984 355.984 168.305 342.684 174.448 332.044C175.849 329.618 177.864 327.603 180.29 326.202C182.716 324.801 185.468 324.064 188.27 324.064Z" fill="#28A745"/>
<path d="M188.27 324.064C200.555 324.064 208.234 337.364 202.091 348.004C200.69 350.43 198.676 352.445 196.249 353.846C193.823 355.247 191.071 355.984 188.27 355.984C175.984 355.984 168.305 342.684 174.448 332.044C175.849 329.618 177.864 327.603 180.29 326.202C182.716 324.801 185.468 324.064 188.27 324.064Z" fill="black" fill-opacity="0.2"/>
</g>
<path d="M180.051 322.239C180.286 322.647 180.35 323.131 180.228 323.585C180.107 324.039 179.809 324.426 179.402 324.662C177.557 325.732 175.918 327.122 174.563 328.769C174.417 328.956 174.236 329.112 174.029 329.228C173.822 329.344 173.594 329.417 173.359 329.444C173.123 329.47 172.885 329.449 172.657 329.381C172.43 329.314 172.219 329.201 172.035 329.051C171.852 328.9 171.701 328.714 171.591 328.504C171.481 328.294 171.414 328.064 171.395 327.828C171.375 327.592 171.403 327.354 171.477 327.129C171.551 326.903 171.669 326.695 171.825 326.517C173.447 324.54 175.412 322.872 177.625 321.592C177.827 321.475 178.05 321.399 178.281 321.369C178.512 321.338 178.746 321.353 178.972 321.413C179.197 321.473 179.408 321.577 179.593 321.719C179.778 321.861 179.933 322.037 180.049 322.239H180.051ZM198.909 321.592C201.123 322.871 203.089 324.539 204.711 326.515C204.995 326.879 205.124 327.34 205.073 327.799C205.022 328.258 204.794 328.679 204.437 328.972C204.081 329.265 203.624 329.408 203.164 329.37C202.704 329.331 202.277 329.115 201.973 328.767C200.62 327.119 198.981 325.728 197.134 324.662C196.727 324.426 196.43 324.038 196.309 323.584C196.188 323.129 196.252 322.645 196.487 322.238C196.723 321.831 197.111 321.534 197.565 321.413C198.02 321.292 198.502 321.356 198.909 321.592ZM188.269 331.157C187.835 331.157 187.415 331.317 187.091 331.606C186.766 331.894 186.559 332.292 186.508 332.723L186.496 332.931V339.999C186.49 340.393 186.616 340.78 186.854 341.093L187.013 341.278L190.748 345.011C191.066 345.332 191.496 345.52 191.948 345.535C192.4 345.55 192.841 345.392 193.18 345.093C193.52 344.794 193.732 344.377 193.774 343.926C193.815 343.476 193.683 343.026 193.405 342.67L193.256 342.503L190.042 339.29V332.931C190.042 332.46 189.855 332.009 189.523 331.677C189.19 331.344 188.739 331.157 188.269 331.157Z" fill="#28A745"/>
<path d="M180.051 322.239C180.286 322.647 180.35 323.131 180.228 323.585C180.107 324.039 179.809 324.426 179.402 324.662C177.557 325.732 175.918 327.122 174.563 328.769C174.417 328.956 174.236 329.112 174.029 329.228C173.822 329.344 173.594 329.417 173.359 329.444C173.123 329.47 172.885 329.449 172.657 329.381C172.43 329.314 172.219 329.201 172.035 329.051C171.852 328.9 171.701 328.714 171.591 328.504C171.481 328.294 171.414 328.064 171.395 327.828C171.375 327.592 171.403 327.354 171.477 327.129C171.551 326.903 171.669 326.695 171.825 326.517C173.447 324.54 175.412 322.872 177.625 321.592C177.827 321.475 178.05 321.399 178.281 321.369C178.512 321.338 178.746 321.353 178.972 321.413C179.197 321.473 179.408 321.577 179.593 321.719C179.778 321.861 179.933 322.037 180.049 322.239H180.051ZM198.909 321.592C201.123 322.871 203.089 324.539 204.711 326.515C204.995 326.879 205.124 327.34 205.073 327.799C205.022 328.258 204.794 328.679 204.437 328.972C204.081 329.265 203.624 329.408 203.164 329.37C202.704 329.331 202.277 329.115 201.973 328.767C200.62 327.119 198.981 325.728 197.134 324.662C196.727 324.426 196.43 324.038 196.309 323.584C196.188 323.129 196.252 322.645 196.487 322.238C196.723 321.831 197.111 321.534 197.565 321.413C198.02 321.292 198.502 321.356 198.909 321.592ZM188.269 331.157C187.835 331.157 187.415 331.317 187.091 331.606C186.766 331.894 186.559 332.292 186.508 332.723L186.496 332.931V339.999C186.49 340.393 186.616 340.78 186.854 341.093L187.013 341.278L190.748 345.011C191.066 345.332 191.496 345.52 191.948 345.535C192.4 345.55 192.841 345.392 193.18 345.093C193.52 344.794 193.732 344.377 193.774 343.926C193.815 343.476 193.683 343.026 193.405 342.67L193.256 342.503L190.042 339.29V332.931C190.042 332.46 189.855 332.009 189.523 331.677C189.19 331.344 188.739 331.157 188.269 331.157Z" fill="black" fill-opacity="0.2"/>
<path d="M217.303 333.876C217.303 326.127 214.225 318.695 208.745 313.215C203.266 307.735 195.834 304.657 188.084 304.657C180.335 304.657 172.903 307.735 167.423 313.215C161.944 318.695 158.865 326.127 158.865 333.876L169.194 333.876C169.194 328.866 171.184 324.061 174.727 320.519C178.27 316.976 183.074 314.986 188.084 314.986C193.094 314.986 197.899 316.976 201.441 320.519C204.984 324.061 206.974 328.866 206.974 333.876H217.303Z" fill="#175F28"/>
<path d="M158.866 342.545C158.866 350.294 161.944 357.726 167.424 363.206C172.903 368.685 180.335 371.764 188.085 371.764C195.834 371.764 203.266 368.685 208.746 363.206C214.225 357.726 217.304 350.294 217.304 342.545L206.975 342.545C206.975 347.555 204.985 352.36 201.442 355.902C197.899 359.445 193.095 361.435 188.085 361.435C183.075 361.435 178.27 359.445 174.728 355.902C171.185 352.36 169.195 347.555 169.195 342.545H158.866Z" fill="#175F28"/>
<path d="M124.688 435.411C125.8 435.411 126.867 434.969 127.653 434.183C128.439 433.397 128.881 432.33 128.881 431.218L128.881 411.683L84.911 411.682L84.9054 431.212C84.9047 431.763 85.0128 432.31 85.2236 432.819C85.4344 433.329 85.7436 433.792 86.1337 434.182C86.5237 434.572 86.9869 434.882 87.4967 435.092C88.0064 435.303 88.5527 435.411 89.1043 435.411L124.688 435.411ZM84.9109 403.296L128.881 403.297L128.88 326.198L127.652 327.425C126.866 328.212 125.799 328.654 124.687 328.654C123.574 328.654 122.508 328.212 121.721 327.425L118.756 324.46L115.791 327.425C115.004 328.212 113.938 328.654 112.825 328.654C111.713 328.654 110.646 328.212 109.86 327.425L106.895 324.46L103.929 327.425C103.143 328.212 102.076 328.653 100.964 328.653C99.8518 328.653 98.7851 328.211 97.9987 327.425L95.0333 324.46L92.068 327.425C91.2816 328.211 90.2149 328.653 89.1027 328.653C87.9905 328.653 86.9238 328.211 86.1373 327.425L84.9097 326.197L84.9109 403.296ZM84.9095 314.715C85.3661 314.922 85.7819 315.21 86.1371 315.564L89.1025 318.529L92.0678 315.564C92.8543 314.777 93.9209 314.335 95.0331 314.335C96.1453 314.335 97.212 314.777 97.9985 315.564L100.964 318.529L103.929 315.564C104.716 314.777 105.782 314.336 106.894 314.336C108.007 314.336 109.073 314.777 109.86 315.564L112.825 318.529L115.79 315.564C116.577 314.778 117.644 314.336 118.756 314.336C119.868 314.336 120.935 314.778 121.721 315.564L124.687 318.529L127.652 315.564C128.007 315.21 128.423 314.923 128.879 314.716L128.885 312.599C128.883 312.032 128.766 311.471 128.541 310.95L110.749 269.435C110.426 268.681 109.888 268.037 109.203 267.585C108.517 267.133 107.715 266.892 106.894 266.892C106.073 266.892 105.27 267.133 104.585 267.585C103.9 268.037 103.362 268.68 103.039 269.435L85.2475 310.949C85.0225 311.47 84.9055 312.031 84.9035 312.598L84.9095 314.715Z" fill="#007BFF"/>
<path d="M246.555 342.56L275.774 371.3L304.992 342.56V420.318C304.992 429.154 297.829 436.318 288.992 436.318H262.555C253.718 436.318 246.555 429.154 246.555 420.318V342.56Z" fill="#FD7E14"/>
<path d="M246.555 237.222C246.555 221.083 259.638 208 275.777 208C291.916 208 304.999 221.083 304.999 237.222V333.559L275.777 305.149L246.555 333.559V237.222Z" fill="#FD7E14"/>
<path d="M304.993 333.886C304.993 326.137 301.914 318.705 296.435 313.225C290.955 307.746 283.523 304.667 275.774 304.667C268.024 304.667 260.592 307.746 255.113 313.225C249.633 318.705 246.555 326.137 246.555 333.886L256.884 333.886C256.884 328.876 258.874 324.071 262.416 320.529C265.959 316.986 270.764 314.996 275.774 314.996C280.784 314.996 285.588 316.986 289.131 320.529C292.673 324.071 294.664 328.876 294.664 333.886H304.993Z" fill="#8D4000"/>
<circle cx="275.614" cy="337.582" r="14.9322" fill="#FD7E14" fill-opacity="0.2"/>
<path d="M272.923 322.642C273.148 323.279 273.111 323.979 272.82 324.588C272.529 325.197 272.008 325.666 271.372 325.891C269.172 326.669 267.228 328.037 265.752 329.845C264.277 331.653 263.327 333.831 263.006 336.143C262.685 338.454 263.006 340.81 263.933 342.951C264.86 345.093 266.358 346.938 268.263 348.286C270.169 349.633 272.408 350.432 274.736 350.593C277.064 350.754 279.391 350.272 281.464 349.2C283.537 348.128 285.275 346.507 286.489 344.513C287.702 342.52 288.344 340.232 288.345 337.898C288.345 335.861 287.87 333.943 287.023 332.242C286.874 331.943 286.786 331.617 286.763 331.283C286.74 330.95 286.783 330.615 286.889 330.298C287.104 329.658 287.565 329.129 288.17 328.828C288.775 328.528 289.474 328.479 290.114 328.694C290.755 328.909 291.283 329.37 291.584 329.975C292.807 332.437 293.441 335.149 293.437 337.898C293.437 347.741 285.458 355.72 275.615 355.72C265.772 355.72 257.793 347.741 257.793 337.898C257.793 330.134 262.756 323.537 269.674 321.091C270.311 320.866 271.011 320.903 271.62 321.194C272.229 321.485 272.698 322.006 272.923 322.642ZM276.464 322.646C276.464 322.258 276.551 321.876 276.72 321.527C276.888 321.179 277.134 320.873 277.438 320.633C277.742 320.393 278.096 320.225 278.474 320.141C278.852 320.057 279.244 320.061 279.621 320.15L279.838 320.213L284.907 321.904C285.527 322.111 286.044 322.548 286.351 323.126C286.657 323.704 286.73 324.378 286.553 325.008C286.376 325.637 285.964 326.175 285.401 326.509C284.839 326.843 284.169 326.947 283.532 326.801L283.297 326.735L281.556 326.154V337.898L281.547 338.224C281.482 339.407 281.065 340.544 280.348 341.489C279.632 342.433 278.649 343.141 277.527 343.523C276.405 343.904 275.194 343.941 274.051 343.629C272.907 343.317 271.883 342.669 271.111 341.771C270.338 340.872 269.852 339.762 269.715 338.585C269.578 337.408 269.796 336.216 270.342 335.164C270.887 334.112 271.735 333.246 272.776 332.68C273.817 332.113 275.004 331.871 276.184 331.984L276.464 332.018V322.646Z" fill="#FD7E14"/>
<path d="M246.558 342.556C246.558 350.306 249.637 357.738 255.116 363.217C260.596 368.697 268.028 371.775 275.777 371.775C283.526 371.775 290.958 368.697 296.438 363.217C301.918 357.738 304.996 350.306 304.996 342.556L294.667 342.556C294.667 347.566 292.677 352.371 289.134 355.914C285.592 359.456 280.787 361.446 275.777 361.446C270.767 361.446 265.962 359.456 262.42 355.914C258.877 352.371 256.887 347.566 256.887 342.556H246.558Z" fill="#8D4000"/>
</g>
<g filter="url(#filter3_d_92_891)">
<path d="M116.407 548.84V559.8H101.527V605H87.8469V559.8H72.9669V548.84H116.407ZM120.553 582.6C120.553 578.013 121.406 573.987 123.113 570.52C124.873 567.053 127.246 564.387 130.233 562.52C133.219 560.653 136.553 559.72 140.233 559.72C143.379 559.72 146.126 560.36 148.473 561.64C150.873 562.92 152.713 564.6 153.993 566.68V560.36H167.673V605H153.993V598.68C152.659 600.76 150.793 602.44 148.393 603.72C146.046 605 143.299 605.64 140.153 605.64C136.526 605.64 133.219 604.707 130.233 602.84C127.246 600.92 124.873 598.227 123.113 594.76C121.406 591.24 120.553 587.187 120.553 582.6ZM153.993 582.68C153.993 579.267 153.033 576.573 151.113 574.6C149.246 572.627 146.953 571.64 144.233 571.64C141.513 571.64 139.193 572.627 137.273 574.6C135.406 576.52 134.473 579.187 134.473 582.6C134.473 586.013 135.406 588.733 137.273 590.76C139.193 592.733 141.513 593.72 144.233 593.72C146.953 593.72 149.246 592.733 151.113 590.76C153.033 588.787 153.993 586.093 153.993 582.68Z" fill="#007BFF"/>
<path d="M195.729 605.64C191.836 605.64 188.369 604.973 185.329 603.64C182.289 602.307 179.889 600.493 178.129 598.2C176.369 595.853 175.383 593.24 175.169 590.36H188.689C188.849 591.907 189.569 593.16 190.849 594.12C192.129 595.08 193.703 595.56 195.569 595.56C197.276 595.56 198.583 595.24 199.489 594.6C200.449 593.907 200.929 593.027 200.929 591.96C200.929 590.68 200.263 589.747 198.929 589.16C197.596 588.52 195.436 587.827 192.449 587.08C189.249 586.333 186.583 585.56 184.449 584.76C182.316 583.907 180.476 582.6 178.929 580.84C177.383 579.027 176.609 576.6 176.609 573.56C176.609 571 177.303 568.68 178.689 566.6C180.129 564.467 182.209 562.787 184.929 561.56C187.703 560.333 190.983 559.72 194.769 559.72C200.369 559.72 204.769 561.107 207.969 563.88C211.223 566.653 213.089 570.333 213.569 574.92H200.929C200.716 573.373 200.023 572.147 198.849 571.24C197.729 570.333 196.236 569.88 194.369 569.88C192.769 569.88 191.543 570.2 190.689 570.84C189.836 571.427 189.409 572.253 189.409 573.32C189.409 574.6 190.076 575.56 191.409 576.2C192.796 576.84 194.929 577.48 197.809 578.12C201.116 578.973 203.809 579.827 205.889 580.68C207.969 581.48 209.783 582.813 211.329 584.68C212.929 586.493 213.756 588.947 213.809 592.04C213.809 594.653 213.063 597 211.569 599.08C210.129 601.107 208.023 602.707 205.249 603.88C202.529 605.053 199.356 605.64 195.729 605.64Z" fill="#28A745"/>
<path d="M219.459 582.68C219.459 578.04 220.392 573.987 222.259 570.52C224.179 567.053 226.819 564.387 230.179 562.52C233.592 560.653 237.485 559.72 241.859 559.72C247.459 559.72 252.125 561.187 255.859 564.12C259.645 567.053 262.125 571.187 263.299 576.52H248.739C247.512 573.107 245.139 571.4 241.619 571.4C239.112 571.4 237.112 572.387 235.619 574.36C234.125 576.28 233.379 579.053 233.379 582.68C233.379 586.307 234.125 589.107 235.619 591.08C237.112 593 239.112 593.96 241.619 593.96C245.139 593.96 247.512 592.253 248.739 588.84H263.299C262.125 594.067 259.645 598.173 255.859 601.16C252.072 604.147 247.405 605.64 241.859 605.64C237.485 605.64 233.592 604.707 230.179 602.84C226.819 600.973 224.179 598.307 222.259 594.84C220.392 591.373 219.459 587.32 219.459 582.68ZM267.896 582.6C267.896 578.013 268.75 573.987 270.456 570.52C272.216 567.053 274.59 564.387 277.576 562.52C280.563 560.653 283.896 559.72 287.576 559.72C290.723 559.72 293.47 560.36 295.816 561.64C298.216 562.92 300.056 564.6 301.336 566.68V560.36H315.016V605H301.336V598.68C300.003 600.76 298.136 602.44 295.736 603.72C293.39 605 290.643 605.64 287.496 605.64C283.87 605.64 280.563 604.707 277.576 602.84C274.59 600.92 272.216 598.227 270.456 594.76C268.75 591.24 267.896 587.187 267.896 582.6ZM301.336 582.68C301.336 579.267 300.376 576.573 298.456 574.6C296.59 572.627 294.296 571.64 291.576 571.64C288.856 571.64 286.536 572.627 284.616 574.6C282.75 576.52 281.816 579.187 281.816 582.6C281.816 586.013 282.75 588.733 284.616 590.76C286.536 592.733 288.856 593.72 291.576 593.72C294.296 593.72 296.59 592.733 298.456 590.76C300.376 588.787 301.336 586.093 301.336 582.68Z" fill="#FD7E14"/>
</g>
<rect opacity="0.01" x="125" y="830" width="140" height="14" fill="#D8D8D8"/>
<rect x="125" y="830" width="140" height="6" rx="3" fill="black"/>
</g>
<defs>
<filter id="filter0_f_92_891" x="20" y="-166" width="592" height="592" filterUnits="userSpaceOnUse" color-interpolation-filters="sRGB">
<feFlood flood-opacity="0" result="BackgroundImageFix"/>
<feBlend mode="normal" in="SourceGraphic" in2="BackgroundImageFix" result="shape"/>
<feGaussianBlur stdDeviation="100" result="effect1_foregroundBlur_92_891"/>
</filter>
<filter id="filter1_f_92_891" x="-222" y="405" width="592" height="592" filterUnits="userSpaceOnUse" color-interpolation-filters="sRGB">
<feFlood flood-opacity="0" result="BackgroundImageFix"/>
<feBlend mode="normal" in="SourceGraphic" in2="BackgroundImageFix" result="shape"/>
<feGaussianBlur stdDeviation="100" result="effect1_foregroundBlur_92_891"/>
</filter>
<filter id="filter2_d_92_891" x="79.9033" y="203" width="270.096" height="329.065" filterUnits="userSpaceOnUse" color-interpolation-filters="sRGB">
<feFlood flood-opacity="0" result="BackgroundImageFix"/>
<feColorMatrix in="SourceAlpha" type="matrix" values="0 0 0 0 0 0 0 0 0 0 0 0 0 0 0 0 0 0 127 0" result="hardAlpha"/>
<feOffset dx="20" dy="20"/>
<feGaussianBlur stdDeviation="12.5"/>
<feComposite in2="hardAlpha" operator="out"/>
<feColorMatrix type="matrix" values="0 0 0 0 0 0 0 0 0 0 0 0 0 0 0 0 0 0 0.25 0"/>
<feBlend mode="normal" in2="BackgroundImageFix" result="effect1_dropShadow_92_891"/>
<feBlend mode="normal" in="SourceGraphic" in2="effect1_dropShadow_92_891" result="shape"/>
</filter>
<filter id="filter3_d_92_891" x="67.9668" y="543.84" width="292.049" height="106.8" filterUnits="userSpaceOnUse" color-interpolation-filters="sRGB">
<feFlood flood-opacity="0" result="BackgroundImageFix"/>
<feColorMatrix in="SourceAlpha" type="matrix" values="0 0 0 0 0 0 0 0 0 0 0 0 0 0 0 0 0 0 127 0" result="hardAlpha"/>
<feOffset dx="20" dy="20"/>
<feGaussianBlur stdDeviation="12.5"/>
<feComposite in2="hardAlpha" operator="out"/>
<feColorMatrix type="matrix" values="0 0 0 0 0 0 0 0 0 0 0 0 0 0 0 0 0 0 0.25 0"/>
<feBlend mode="normal" in2="BackgroundImageFix" result="effect1_dropShadow_92_891"/>
<feBlend mode="normal" in="SourceGraphic" in2="effect1_dropShadow_92_891" result="shape"/>
</filter>
<clipPath id="clip0_92_891">
<rect width="390" height="844" fill="white"/>
</clipPath>
</defs>
</svg>
