<svg width="18" height="20" viewBox="0 0 18 20" fill="none" xmlns="http://www.w3.org/2000/svg">
<path d="M9.79377 0.958496C9.67267 0.962793 9.57111 0.958496 9.49689 0.966699C9.38752 0.976465 9.3133 0.984277 9.21564 1.05381L9.17658 3.76162C9.29377 3.80771 9.42658 3.85146 9.55548 3.85967C9.71564 3.87139 9.82111 3.85146 9.91486 3.76553L9.79377 0.958496ZM5.7547 2.43896C5.75861 2.67139 5.76642 2.86904 5.8133 2.99131C5.90314 3.19521 6.08673 3.37725 6.82892 3.53506L7.70783 3.72178L6.94611 4.1835C6.30158 4.57803 5.57111 4.94131 4.93439 5.21865C5.17658 5.246 5.41486 5.27334 5.64533 5.27334C6.34064 5.26943 6.99689 5.121 7.80548 4.56631L8.42658 4.14053L8.4422 3.18936C7.44611 2.96982 6.6258 2.73311 5.7547 2.43896ZM12.8328 2.69248C12.0711 2.95381 11.4891 3.121 10.6297 3.24561L10.6649 3.98037L10.5985 4.07803C10.3328 4.46865 9.8797 4.59756 9.50861 4.57412C9.13752 4.55068 8.82111 4.42178 8.59455 4.27725L8.46955 4.19521L8.38361 4.89834C8.30939 5.56631 8.30158 6.00381 8.18048 6.55459C8.7508 6.14834 9.13361 5.81631 9.60627 5.09756L9.88752 4.67959L10.2039 5.07021C10.6297 5.57803 11.3289 5.96475 12.0985 6.20303C11.8758 5.94912 11.6727 5.63662 11.6297 5.22646L11.575 4.67568L12.118 4.85537C12.9227 5.11318 13.1688 5.09365 13.4422 4.9999C13.5555 4.96475 13.7039 4.89834 13.8563 4.82412L10.7039 3.74561L11.7703 3.42725C12.325 3.26162 12.5867 3.07178 12.7313 2.88271C12.7703 2.82412 12.8055 2.76006 12.8328 2.69248ZM15.1258 5.15615L15.0555 5.17178C14.3758 5.33584 14.1063 5.54287 13.6883 5.6835C13.3992 5.77334 13.0789 5.79287 12.6453 5.71865C12.661 5.74209 12.6844 5.76553 12.7039 5.78896C12.8992 6.00381 13.1805 6.24209 13.4383 6.57803L13.9539 7.2499L13.0985 7.14834C11.9617 7.01162 10.7781 6.60537 9.96173 5.86318C9.32502 6.69912 8.73127 7.05068 7.72736 7.76162L6.71955 8.48037L7.16095 7.34365C7.48908 6.51943 7.52423 6.121 7.57892 5.53506C6.90314 5.86318 6.26252 5.98428 5.64533 5.98818C4.91486 5.98818 4.21955 5.84365 3.48908 5.73818C3.47345 5.73818 3.45783 5.74209 3.4422 5.746C1.1047 7.55068 0.749234 10.2577 0.751969 11.6171C0.758609 15.2968 1.79611 18.9101 9.4422 19.039C15.2586 19.1405 17.8563 15.1562 17.8211 11.453C17.7899 9.08584 17.3406 6.59365 15.1258 5.15615ZM5.03205 6.496C5.54767 6.48818 6.0633 6.66787 6.13752 6.98037C2.54064 8.61709 2.55978 10.8007 2.02775 13.1054C1.59416 10.8866 1.7422 8.32021 4.18439 6.71475C4.40314 6.56631 4.72345 6.4999 5.03205 6.496Z" fill="black"/>
</svg>
