<svg width="33" height="32" viewBox="0 0 33 32" fill="none" xmlns="http://www.w3.org/2000/svg">
<g clip-path="url(#clip0_539_3549)">
<path fill-rule="evenodd" clip-rule="evenodd" d="M5.58333 25.1016C5.92048 25.0994 6.25079 25.1967 6.53294 25.3813C6.81509 25.5659 7.03655 25.8295 7.16961 26.1393C7.4759 26.8593 8.0039 27.4605 8.67361 27.8628C9.92161 28.6125 12.1708 28.6125 13.421 27.8628C14.0907 27.4602 14.6168 26.8573 14.925 26.1393C15.0574 25.8315 15.2772 25.5691 15.5571 25.3848C15.837 25.2005 16.1648 25.1022 16.4999 25.1022C16.835 25.1022 17.1628 25.2005 17.4427 25.3848C17.7226 25.5691 17.9424 25.8315 18.0748 26.1393C18.3833 26.8593 18.909 27.4605 19.5788 27.8628C20.8268 28.6125 23.0782 28.6125 24.3262 27.8628C24.9959 27.4605 25.5239 26.857 25.8302 26.1393C25.963 25.8295 26.1843 25.5657 26.4663 25.3809C26.7483 25.1962 27.0785 25.0987 27.4157 25.1006C27.7528 25.1026 28.0819 25.2039 28.3617 25.3919C28.6416 25.5799 28.8598 25.8462 28.989 26.1576C29.1849 26.6248 29.4818 27.0427 29.8584 27.3814C30.2351 27.7201 30.6821 27.9711 31.1673 28.1165C31.3831 28.1807 31.5842 28.2868 31.759 28.4288C31.9338 28.5707 32.079 28.7457 32.1861 28.9437C32.2933 29.1417 32.3605 29.3589 32.3837 29.5829C32.4069 29.8069 32.3858 30.0332 32.3216 30.249C32.2574 30.4649 32.1513 30.6659 32.0093 30.8407C31.8674 31.0155 31.6924 31.1607 31.4944 31.2679C31.2964 31.375 31.0792 31.4422 30.8552 31.4654C30.6312 31.4887 30.4049 31.4676 30.189 31.4033C29.1468 31.0929 28.1933 30.539 27.4073 29.7873C26.6902 30.4868 25.8343 31.0279 24.8948 31.3756C23.9553 31.7233 22.9533 31.8698 21.9536 31.8056C20.9539 31.8698 19.9519 31.7233 19.0124 31.3756C18.073 31.0279 17.217 30.4868 16.4999 29.7873C15.7828 30.4868 14.9268 31.0279 13.9874 31.3756C13.0479 31.7233 12.0459 31.8698 11.0462 31.8056C10.0465 31.8698 9.04448 31.7233 8.10501 31.3756C7.16554 31.0279 6.30955 30.4868 5.59247 29.7873C4.8065 30.539 3.85302 31.0929 2.81075 31.4033C2.59494 31.4676 2.36858 31.4887 2.14461 31.4654C1.92064 31.4422 1.70344 31.375 1.50541 31.2679C1.30738 31.1607 1.1324 31.0155 0.990468 30.8407C0.848532 30.6659 0.742418 30.4649 0.678182 30.249C0.613947 30.0332 0.59285 29.8069 0.616094 29.5829C0.639339 29.3589 0.70647 29.1417 0.813655 28.9437C0.920841 28.7457 1.06598 28.5707 1.24079 28.4288C1.4156 28.2868 1.61665 28.1807 1.83247 28.1165C2.31771 27.9711 2.76472 27.7201 3.14136 27.3814C3.518 27.0427 3.81491 26.6248 4.01075 26.1576C4.14011 25.8466 4.35826 25.5805 4.63794 25.3927C4.91762 25.2049 5.24644 25.1036 5.58333 25.1016Z" fill="black"/>
<path fill-rule="evenodd" clip-rule="evenodd" d="M19.9286 0C12.82 0 10.1046 5.13829 9.65886 7.81257C9.62571 8.01252 9.64633 8.21768 9.7186 8.40703C9.79088 8.59639 9.91221 8.76311 10.0702 8.89012C10.2281 9.01712 10.417 9.09984 10.6174 9.1298C10.8179 9.15975 11.0227 9.13586 11.2109 9.06057C12.4954 8.54629 13.492 8.45714 14.2509 8.58971C14.9937 8.72 15.5903 9.07886 16.0794 9.62057C17.0966 10.752 17.6429 12.7063 17.6429 14.8571C17.6429 17.5451 14.8429 20.5714 10.7857 20.5714C8.82686 20.5714 6.852 19.536 6.12286 17.8354C6.03459 17.6284 5.88714 17.452 5.699 17.3284C5.51087 17.2048 5.29043 17.1395 5.06534 17.1408C4.84026 17.142 4.62054 17.2096 4.43376 17.3353C4.24698 17.4609 4.10145 17.6389 4.01543 17.8469C3.53543 19.0034 2.51829 19.92 1.31829 20.2766C1.08212 20.3465 0.874878 20.4909 0.727426 20.6882C0.579973 20.8855 0.500203 21.1251 0.5 21.3714L0.5 25.568C0.667619 25.4949 0.840571 25.4316 1.01886 25.3783C1.09821 25.3551 1.17129 25.3143 1.23264 25.2588C1.29399 25.2034 1.34202 25.1349 1.37314 25.0583C1.71825 24.2283 2.30037 23.5185 3.04673 23.0176C3.79309 22.5167 4.67056 22.2469 5.56941 22.242C6.46826 22.2372 7.3486 22.4974 8.10036 22.9902C8.85211 23.4829 9.44191 24.1864 9.796 25.0126C9.86979 25.1773 9.99068 25.3165 10.1434 25.4126C10.148 25.4149 10.228 25.4583 10.4063 25.4994C10.8279 25.5924 11.2647 25.5924 11.6863 25.4994C11.7771 25.4812 11.8654 25.4521 11.9491 25.4126C12.1024 25.3174 12.2241 25.179 12.2989 25.0149C12.6515 24.1929 13.2374 23.4925 13.9842 23.0003C14.7309 22.5081 15.6056 22.2458 16.5 22.2458C17.3944 22.2458 18.2691 22.5081 19.0158 23.0003C19.7626 23.4925 20.3485 24.1929 20.7011 25.0149C20.7759 25.179 20.8976 25.3174 21.0509 25.4126C21.0554 25.4149 21.1354 25.4583 21.3137 25.4994C21.7353 25.5924 22.1721 25.5924 22.5937 25.4994C22.772 25.4583 22.852 25.4149 22.8566 25.4126C23.009 25.3171 23.1298 25.1787 23.204 25.0149C23.5581 24.1887 24.1479 23.4852 24.8996 22.9924C25.6514 22.4997 26.5317 22.2395 27.4306 22.2443C28.3294 22.2492 29.2069 22.519 29.9533 23.0199C30.6996 23.5208 31.2818 24.2306 31.6269 25.0606C31.658 25.1372 31.706 25.2057 31.7674 25.2611C31.8287 25.3165 31.9018 25.3574 31.9811 25.3806C32.1594 25.4324 32.3324 25.4949 32.5 25.568V8C32.5 7.82223 32.4585 7.64692 32.3789 7.488C31.1171 4.96686 26.9069 0 19.9286 0ZM32.1914 30.5669C32.3107 30.3427 32.3786 30.0948 32.3904 29.8412C32.4022 29.5876 32.3574 29.3345 32.2594 29.1002C32.1615 28.866 32.0127 28.6564 31.8238 28.4867C31.635 28.317 31.4108 28.1914 31.1674 28.1189C30.682 27.9733 30.2348 27.7219 29.8582 27.3828C29.4815 27.0437 29.1847 26.6253 28.9891 26.1577C28.8599 25.8463 28.6417 25.58 28.3618 25.392C28.082 25.204 27.7529 25.1027 27.4158 25.1007C27.0786 25.0988 26.7484 25.1963 26.4664 25.381C26.1844 25.5658 25.9631 25.8296 25.8303 26.1394C25.5221 26.8574 24.9959 27.4603 24.3263 27.8629C23.0783 28.6126 20.8291 28.6126 19.5789 27.8629C18.9092 27.4603 18.3831 26.8574 18.0749 26.1394C17.9425 25.8315 17.7227 25.5692 17.4428 25.3849C17.1629 25.2006 16.8351 25.1023 16.5 25.1023C16.1649 25.1023 15.8371 25.2006 15.5572 25.3849C15.2773 25.5692 15.0575 25.8315 14.9251 26.1394C14.6169 26.8574 14.0908 27.4603 13.4211 27.8629C12.1731 28.6126 9.92171 28.6126 8.67371 27.8629C8.00407 27.4603 7.47793 26.8574 7.16971 26.1394C7.03686 25.8296 6.81559 25.5658 6.53358 25.381C6.25158 25.1963 5.92135 25.0988 5.58422 25.1007C5.24709 25.1027 4.91802 25.204 4.63817 25.392C4.35832 25.58 4.14012 25.8463 4.01086 26.1577C3.81502 26.6249 3.5181 27.0428 3.14146 27.3815C2.76482 27.7202 2.31781 27.9712 1.83257 28.1166C1.61675 28.1808 1.4157 28.2869 1.24089 28.4289C1.06608 28.5708 0.920944 28.7458 0.813759 28.9438C0.706573 29.1418 0.639442 29.359 0.616197 29.583C0.592953 29.807 0.614051 30.0333 0.678286 30.2491C0.742521 30.465 0.848636 30.666 0.990571 30.8408C1.13251 31.0156 1.30748 31.1608 1.50551 31.268C1.70354 31.3751 1.92074 31.4423 2.14471 31.4655C2.36868 31.4888 2.59504 31.4677 2.81086 31.4034C3.85312 31.093 4.8066 30.5391 5.59257 29.7874C6.04791 30.2382 6.56417 30.6229 7.12629 30.9303C8.32231 31.5912 9.68261 31.8958 11.0463 31.808C12.4102 31.8951 13.7705 31.5897 14.9663 30.928L15.1834 30.8023C15.6618 30.5186 16.1039 30.1779 16.5 29.7874C16.9546 30.238 17.4701 30.6227 18.0314 30.9303C19.2275 31.5912 20.59 31.8958 21.9537 31.808C23.3168 31.8947 24.6763 31.5893 25.8714 30.928C26.4335 30.6206 26.9498 30.2359 27.4051 29.7851L27.5651 29.9314C28.3601 30.6434 29.3103 31.1599 30.34 31.44C30.7017 31.5128 31.0773 31.4669 31.4108 31.3091C31.7444 31.1514 32.0181 30.8903 32.1914 30.5646V30.5669Z" fill="black"/>
</g>
<defs>
<clipPath id="clip0_539_3549">
<rect width="32" height="32" fill="white" transform="translate(0.5)"/>
</clipPath>
</defs>
</svg>
