<svg width="33" height="32" viewBox="0 0 33 32" fill="none" xmlns="http://www.w3.org/2000/svg">
<path d="M4.49984 10.6665H13.8332C14.6243 10.6665 15.3977 10.4319 16.0555 9.99238C16.7132 9.55286 17.2259 8.92814 17.5287 8.19724C17.8314 7.46634 17.9107 6.66207 17.7563 5.88614C17.602 5.11022 17.221 4.39749 16.6616 3.83808C16.1022 3.27867 15.3895 2.89771 14.6135 2.74336C13.8376 2.58902 13.0333 2.66824 12.3024 2.97099C11.5715 3.27374 10.9468 3.78643 10.5073 4.44423C10.0678 5.10202 9.83317 5.87538 9.83317 6.66651M5.83317 21.3332H20.4998C21.291 21.3332 22.0643 21.5678 22.7221 22.0073C23.3799 22.4468 23.8926 23.0715 24.1954 23.8024C24.4981 24.5333 24.5773 25.3376 24.423 26.1135C24.2686 26.8895 23.8877 27.6022 23.3283 28.1616C22.7689 28.721 22.0561 29.102 21.2802 29.2563C20.5043 29.4107 19.7 29.3314 18.9691 29.0287C18.2382 28.7259 17.6135 28.2133 17.174 27.5555C16.7344 26.8977 16.4998 26.1243 16.4998 25.3332M3.1665 15.9998H25.8332C26.6243 15.9998 27.3977 15.7652 28.0555 15.3257C28.7132 14.8862 29.2259 14.2615 29.5287 13.5306C29.8314 12.7997 29.9107 11.9954 29.7563 11.2195C29.602 10.4436 29.221 9.73082 28.6616 9.17141C28.1022 8.612 27.3895 8.23104 26.6135 8.0767C25.8376 7.92236 25.0333 8.00157 24.3024 8.30432C23.5715 8.60707 22.9468 9.11976 22.5073 9.77756C22.0678 10.4354 21.8332 11.2087 21.8332 11.9998" stroke="black" stroke-width="3" stroke-linecap="round" stroke-linejoin="round"/>
</svg>
